<svg xmlns="http://www.w3.org/2000/svg" width="55.733" height="37.028" viewBox="0 0 55.733 37.028"><g transform="translate(0.5 0.16)" opacity="0.4"><path d="M23.513,22.773a7.392,7.392,0,0,1-2.8-3.144,11.013,11.013,0,0,1-1-4.84,11.013,11.013,0,0,1,1-4.84,7.353,7.353,0,0,1,2.8-3.142,7.614,7.614,0,0,1,4.021-1.09,6.787,6.787,0,0,1,3.821,1.054,6,6,0,0,1,2.283,2.843V0h4.471V23.636H33.637V19.928a6.1,6.1,0,0,1-2.283,2.861,6.692,6.692,0,0,1-3.821,1.071A7.628,7.628,0,0,1,23.513,22.773Zm2.042-11.753a5.341,5.341,0,0,0-1.276,3.769,5.274,5.274,0,0,0,1.276,3.753A4.439,4.439,0,0,0,28.939,19.9a4.471,4.471,0,0,0,3.37-1.387,5.192,5.192,0,0,0,1.328-3.723,5.222,5.222,0,0,0-1.328-3.753,4.462,4.462,0,0,0-3.37-1.392A4.425,4.425,0,0,0,25.555,11.019ZM4.248,22.757a7.75,7.75,0,0,1-3.131-3.146A9.9,9.9,0,0,1,0,14.789,9.995,9.995,0,0,1,1.117,9.95,7.622,7.622,0,0,1,4.248,6.8a9.537,9.537,0,0,1,4.6-1.086,8.758,8.758,0,0,1,5.7,1.853,8.094,8.094,0,0,1,2.858,5.046H12.648A3.672,3.672,0,0,0,11.339,10.4a4.024,4.024,0,0,0-2.587-.814,3.86,3.86,0,0,0-2.987,1.326,5.609,5.609,0,0,0-1.2,3.881,5.613,5.613,0,0,0,1.2,3.881,3.863,3.863,0,0,0,2.987,1.325,4.017,4.017,0,0,0,2.587-.814,3.672,3.672,0,0,0,1.309-2.219h4.759a8.091,8.091,0,0,1-2.858,5.046,8.758,8.758,0,0,1-5.7,1.853A9.423,9.423,0,0,1,4.248,22.757Z" transform="translate(0 6.499)" fill="rgba(36,36,36,0.4)" stroke="#242424" stroke-width="1"/><path d="M4.344,36.028,13,0H8.656L0,36.028Z" transform="translate(41.599 0.34)" fill="rgba(211,53,77,0.4)" stroke="#d3354d" stroke-width="1"/></g></svg>