<svg xmlns="http://www.w3.org/2000/svg" width="58.909" height="21.208" viewBox="0 0 58.909 21.208">
  <g id="Group_424" data-name="Group 424" transform="translate(1.308 1.002)" opacity="0.039">
    <g id="Path_601" data-name="Path 601" fill="none" fill-rule="evenodd">
      <path d="M19.293,0a1.656,1.656,0,0,1,1.814,1.983l-.037.151-1.3,4.685a3.628,3.628,0,0,1-1.777,2.22l-.194.1-3.8,1.77.833,3.305a.765.765,0,0,0,.612.512l.11.008h2.5l-1.221,4.477H12.881a2.317,2.317,0,0,1-2.091-1.438l-.047-.15L9.549,12.987,6.218,14.548,4.941,19.207H0L5.219,0ZM36.047,0l0,.01L34.823,4.458l0,.016h-.005L27.4,4.458a.8.8,0,0,0-.887.572.775.775,0,0,0,.361.9l.137.089,7.924,4.916a2.461,2.461,0,0,1,1.059,2.333l-.034.164L34.823,17.62A2.361,2.361,0,0,1,32.782,19.2l-.176.007H22.63l1.22-4.474h6.012a.9.9,0,0,0,.859-.546.643.643,0,0,0-.293-.8l-.122-.085L22.327,8.308a2.462,2.462,0,0,1-1.059-2.333l.034-.164L22.438,1.6A2.324,2.324,0,0,1,24.428.018L24.6.01,36.039,0Zm5.819,0L46.82.01l-5.26,19.2H36.55L41.843.01h.02ZM21.245,14.76l-1.208,4.447h-.806l1.2-4.447Zm-1.611,0-1.252,4.447H17.52l1.263-4.438,0-.009Zm3.323,0-1.243,4.447h-.872l1.243-4.447ZM14.647,4.447H8.966L7.753,8.988l6.7-3.2a1.4,1.4,0,0,0,.828-.84C15.392,4.6,15.089,4.447,14.647,4.447ZM40.98,0,39.771,4.447h-.8L40.183,0ZM39.269,0,38.061,4.447h-.806L38.475,0ZM37.638,0l0,.01h.022L36.411,4.431l0,.016h-.863l0-.016L36.772.01l0-.01Z" stroke="none"/>
      <path d="M 5.218791961669922 1.9073486328125e-06 L 3.814697265625e-06 19.20690155029297 L 4.941322326660156 19.20690155029297 L 6.218063354492188 14.54815101623535 L 9.549213409423828 12.98687171936035 L 10.74297332763672 17.61921119689941 L 10.78951263427734 17.76926231384277 C 11.07611465454102 18.56119155883789 11.96589279174805 19.20690155029297 12.88051223754883 19.20690155029297 L 16.82224273681641 19.20690155029297 L 18.04344367980957 14.73025131225586 L 15.54522323608398 14.73025131225586 L 15.43551254272461 14.72185134887695 C 15.14692306518555 14.67767143249512 14.89759254455566 14.46448135375977 14.82352256774902 14.20999145507812 L 13.99055480957031 10.90475177764893 L 17.79375267028809 9.134922027587891 L 17.98786354064941 9.039041519165039 C 18.81832313537598 8.59503173828125 19.50689315795898 7.785561561584473 19.76462364196777 6.818731307983398 L 21.06949424743652 2.134040832519531 L 21.1064624786377 1.982551574707031 C 21.33130264282227 0.8811225891113281 20.54058265686035 1.9073486328125e-06 19.2928524017334 1.9073486328125e-06 L 5.218791961669922 1.9073486328125e-06 M 7.753025054931641 8.988441467285156 L 8.966342926025391 4.446911811828613 L 14.64730453491211 4.446911811828613 C 15.08870315551758 4.446911811828613 15.39217376708984 4.604811668395996 15.28197288513184 4.94585132598877 C 15.19914245605469 5.208332061767578 15.00611305236816 5.523262023925781 14.45427322387695 5.785931587219238 L 7.753025054931641 8.988441467285156 M 36.03911209106445 1.9073486328125e-06 L 24.5992431640625 0.01020240783691406 L 24.42818260192871 0.01764106750488281 C 23.51789283752441 0.09635162353515625 22.6466236114502 0.7891025543212891 22.437744140625 1.596851348876953 L 21.30225372314453 5.811001777648926 L 21.26840400695801 5.975061416625977 C 21.13731384277344 6.809822082519531 21.57403373718262 7.844532012939453 22.32742309570312 8.308121681213379 L 30.30657386779785 13.30222129821777 L 30.42889404296875 13.387451171875 C 30.76441383361816 13.64122200012207 30.82179260253906 13.8822717666626 30.72204399108887 14.18646240234375 C 30.63885307312012 14.44671154022217 30.30657386779785 14.73265171051025 29.86337280273438 14.73265171051025 L 23.85089302062988 14.73265171051025 L 22.63041305541992 19.20690155029297 L 32.60600280761719 19.20690155029297 L 32.78186416625977 19.19946098327637 C 33.71807098388672 19.12071228027344 34.61420440673828 18.42794227600098 34.82259368896484 17.62005233764648 L 35.95844268798828 13.4321117401123 L 35.99229431152344 13.26801109313965 C 36.12350463867188 12.43335151672363 35.6870231628418 11.39829158782959 34.93351364135742 10.93505191802979 L 27.00958251953125 6.019031524658203 L 26.87214279174805 5.930261611938477 C 26.53277397155762 5.688032150268555 26.41237258911133 5.400362014770508 26.51068305969238 5.030431747436523 C 26.62173271179199 4.614542007446289 26.95424270629883 4.458091735839844 27.39732360839844 4.458091735839844 L 34.81827545166016 4.474051475524902 L 34.82259368896484 4.458091735839844 L 36.04655456542969 1.9073486328125e-06 L 36.03911209106445 1.9073486328125e-06 M 36.77473449707031 1.9073486328125e-06 L 36.77185440063477 0.01014137268066406 L 35.54309463500977 4.446911811828613 L 36.40632247924805 4.446911811828613 L 36.41064453125 4.431041717529297 L 37.65753173828125 0.01014137268066406 L 37.63532257080078 0.01014137268066406 L 37.63797378540039 1.9073486328125e-06 L 36.77473449707031 1.9073486328125e-06 M 38.47515106201172 1.9073486328125e-06 L 37.25479125976562 4.446911811828613 L 38.06112289428711 4.446911811828613 L 39.26851272583008 1.9073486328125e-06 L 38.47515106201172 1.9073486328125e-06 M 40.18324279785156 1.9073486328125e-06 L 38.96648406982422 4.446911811828613 L 39.77089309692383 4.446911811828613 L 40.9802131652832 1.9073486328125e-06 L 40.18324279785156 1.9073486328125e-06 M 41.86600494384766 1.9073486328125e-06 L 41.86324310302734 0.01020240783691406 L 41.84296417236328 0.01020240783691406 L 36.54989242553711 19.20690155029297 L 41.55978393554688 19.20690155029297 L 46.82018280029297 0.01020240783691406 L 41.86600494384766 1.9073486328125e-06 M 18.78591346740723 14.7600212097168 L 18.78327369689941 14.7686710357666 L 17.51981353759766 19.20690155029297 L 18.38220405578613 19.20690155029297 L 19.63425254821777 14.7600212097168 L 18.78591346740723 14.7600212097168 M 20.43206405639648 14.7600212097168 L 19.23151397705078 19.20690155029297 L 20.03712272644043 19.20690155029297 L 21.2452335357666 14.7600212097168 L 20.43206405639648 14.7600212097168 M 22.08554267883301 14.7600212097168 L 20.84249305725098 19.20690155029297 L 21.71424293518066 19.20690155029297 L 22.95705413818359 14.7600212097168 L 22.08554267883301 14.7600212097168 M 41.10105133056641 -1.001577377319336 L 42.28847503662109 -0.9999980926513672 L 42.28823852539062 -0.9991340637207031 L 48.13033294677734 -0.9870986938476562 L 42.32262420654297 20.20690155029297 L 35.23685455322266 20.20690155029297 L 39.30658721923828 5.446911811828613 L 35.59092712402344 5.446911811828613 L 35.58358383178711 5.474051475524902 L 34.81299209594727 5.474051475524902 L 28.00440788269043 5.459402084350586 L 35.46070098876953 10.08530139923096 C 36.53935241699219 10.74842166900635 37.17983245849609 12.153151512146 36.98016357421875 13.42330169677734 L 36.97167205810547 13.47003173828125 L 36.9235725402832 13.69387149810791 L 35.78932189941406 17.87592506408691 C 35.47396087646484 19.08525848388672 34.21834564208984 20.08216667175293 32.86568450927734 20.19594192504883 L 32.82413482666016 20.19857215881348 L 32.60600280761719 20.20690155029297 L 12.88051223754883 20.20690155029297 C 11.56386184692383 20.20690155029297 10.28900146484375 19.32484245300293 9.849193572998047 18.10956192016602 L 9.834403991699219 18.06550216674805 L 9.774612426757812 17.86876106262207 L 8.881763458251953 14.40408706665039 L 7.060482025146484 15.25770473480225 L 5.704143524169922 20.20690155029297 L -1.307968139648438 20.20690155029297 L 4.454254150390625 -0.9999980926513672 L 19.2928524017334 -0.9999980926513672 C 20.22337341308594 -0.9999980926513672 21.05682373046875 -0.6328487396240234 21.57951354980469 0.007322311401367188 C 21.69722557067871 0.1514911651611328 21.79706573486328 0.3055763244628906 21.87854957580566 0.4675674438476562 C 22.4222469329834 -0.3191852569580078 23.35738945007324 -0.8935031890869141 24.34203338623047 -0.9786376953125 L 24.38473320007324 -0.9814186096191406 L 24.59835243225098 -0.9897975921630859 L 41.10105133056641 -1.001577377319336 Z M 12.84450531005859 5.446911811828613 L 9.734260559082031 5.446911811828613 L 9.279037475585938 7.150839805603027 L 12.84450531005859 5.446911811828613 Z M 21.80029106140137 9.157915115356445 C 21.24114036560059 8.812888145446777 20.80024147033691 8.270358085632324 20.5326099395752 7.651275634765625 C 20.12759399414062 8.603404998779297 19.3828296661377 9.427175521850586 18.45936393737793 9.92091178894043 L 18.43073272705078 9.93563175201416 L 18.21566390991211 10.0415620803833 L 15.16236114501953 11.46242523193359 L 15.73388671875 13.73025131225586 L 19.35277366638184 13.73025131225586 L 19.34465217590332 13.7600212097168 L 23.07966804504395 13.7600212097168 L 23.08713340759277 13.73265171051025 L 29.10941886901855 13.73265171051025 L 21.80029106140137 9.157915115356445 Z" stroke="none" fill="#000"/>
    </g>
    <g id="Path_602" data-name="Path 602" transform="translate(8.218)" fill="none" fill-rule="evenodd">
      <path d="M44.72.6a3.234,3.234,0,0,1,2.367.692,3.131,3.131,0,0,1,.695,2.326,3.077,3.077,0,0,1-.692,2.306,3.27,3.27,0,0,1-2.37.679,3.37,3.37,0,0,1-2.4-.684,3.021,3.021,0,0,1-.716-2.3A3.074,3.074,0,0,1,42.319,1.3,3.333,3.333,0,0,1,44.72.6Zm3.662,3.017C48.383,1.1,47.276,0,44.72,0S41,1.1,41,3.618,42.165,7.2,44.72,7.2,48.383,6.132,48.383,3.618ZM43.122,1.636c.573-.054,1.14-.076,1.712-.076,1.156,0,1.55.4,1.55,1.453,0,.772-.2,1.134-.772,1.28l.918,1.464c.043.059.016.108-.065.108h-.994a.212.212,0,0,1-.216-.119L44.38,4.364h-.205V5.779c0,.07-.016.086-.081.086h-.972c-.065,0-.081-.016-.081-.086V1.706C43.041,1.658,43.057,1.642,43.122,1.636Zm2.112,1.415c0-.351-.119-.5-.524-.5h-.535v.983h.535C45.115,3.532,45.234,3.408,45.234,3.051Z" stroke="none"/>
      <path d="M 44.72049331665039 4.291534423828125e-06 C 42.16477584838867 4.291534423828125e-06 40.99999618530273 1.102004528045654 40.99999618530273 3.617684602737427 C 40.99999618530273 6.131994247436523 42.16477584838867 7.202584743499756 44.72049331665039 7.202584743499756 C 47.27621459960938 7.202584743499756 48.38288497924805 6.131994247436523 48.38288497924805 3.617684602737427 C 48.38288497924805 1.102004528045654 47.27621459960938 4.291534423828125e-06 44.72049331665039 4.291534423828125e-06 M 44.72049331665039 6.60237455368042 C 43.50949478149414 6.60237455368042 42.76475524902344 6.346164703369141 42.31591415405273 5.918484687805176 C 41.87355422973633 5.496874809265137 41.60021591186523 4.794304847717285 41.60021591186523 3.617684602737427 C 41.60021591186523 2.440444469451904 41.87355422973633 1.727394580841064 42.31891250610352 1.29712438583374 C 42.76871490478516 0.8625445365905762 43.51345443725586 0.6002144813537598 44.72049331665039 0.6002144813537598 C 45.92800521850586 0.6002144813537598 46.65402603149414 0.8626947402954102 47.08786392211914 1.292084693908691 C 47.5203857421875 1.720064640045166 47.78267288208008 2.433014392852783 47.78267288208008 3.617684602737427 C 47.78267288208008 4.801824569702148 47.5203857421875 5.504234313964844 47.09086608886719 5.923494338989258 C 46.65799331665039 6.345974445343018 45.93197250366211 6.60237455368042 44.72049331665039 6.60237455368042 M 44.83417510986328 1.560564517974854 C 44.26156616210938 1.560564517974854 43.69436264038086 1.582164287567139 43.12176513671875 1.636184692382812 C 43.05693435668945 1.641594409942627 43.04073333740234 1.65779447555542 43.04073333740234 1.706414699554443 L 43.04073333740234 5.779474258422852 C 43.04073333740234 5.849704742431641 43.05693435668945 5.865904808044434 43.12176513671875 5.865904808044434 L 44.0941047668457 5.865904808044434 C 44.158935546875 5.865904808044434 44.17514419555664 5.849704742431641 44.17514419555664 5.779474258422852 L 44.17514419555664 4.364164352416992 L 44.38041305541992 4.364164352416992 L 45.25552368164062 5.747064590454102 C 45.30954360961914 5.828094482421875 45.34735488891602 5.865904808044434 45.47160339355469 5.865904808044434 L 46.4655647277832 5.865904808044434 C 46.54658508300781 5.865904808044434 46.57360458374023 5.817294597625732 46.5303840637207 5.757874488830566 L 45.61205291748047 4.293944358825684 C 46.18466567993164 4.148094177246094 46.3845329284668 3.786164522171021 46.3845329284668 3.013684749603271 C 46.3845329284668 1.960304737091064 45.99019622802734 1.560564517974854 44.83417510986328 1.560564517974854 M 44.70993423461914 3.532274484634399 L 44.17514419555664 3.532274484634399 L 44.17514419555664 2.54911470413208 L 44.70993423461914 2.54911470413208 C 45.11507415771484 2.54911470413208 45.23391342163086 2.700374603271484 45.23391342163086 3.051494598388672 C 45.23391342163086 3.408024549484253 45.11507415771484 3.532274484634399 44.70993423461914 3.532274484634399 M 44.72049331665039 -0.999995231628418 C 46.28581619262695 -0.999995231628418 47.42839431762695 -0.6222953796386719 48.21350479125977 0.1546845436096191 C 49.00037384033203 0.9334144592285156 49.38288497924805 2.066174507141113 49.38288497924805 3.617684602737427 C 49.38288497924805 5.168434619903564 48.99877548217773 6.297234535217285 48.20862579345703 7.06857442855835 C 47.42693328857422 7.831644535064697 46.28595352172852 8.202584266662598 44.72049331665039 8.202584266662598 C 41.58820343017578 8.202584266662598 39.99999618530273 6.660004615783691 39.99999618530273 3.617684602737427 C 39.99999618530273 2.066464424133301 40.39482498168945 0.9309544563293457 41.20703506469727 0.1462745666503906 C 42.00542449951172 -0.6250452995300293 43.15468597412109 -0.999995231628418 44.72049331665039 -0.999995231628418 Z" stroke="none" fill="#000"/>
    </g>
  </g>
</svg>
