<svg xmlns="http://www.w3.org/2000/svg" width="58.909" height="21.208" viewBox="0 0 58.909 21.208">
  <g id="Group_423" data-name="Group 423" transform="translate(1.308 1.002)" opacity="0.4">
    <g id="Path_601" data-name="Path 601" fill="rgba(0,0,0,0.4)" fill-rule="evenodd">
      <path d="M 41.94120407104492 19.70690155029297 L 41.55978393554688 19.70690155029297 L 36.54989242553711 19.70690155029297 L 35.89337158203125 19.70690155029297 L 36.0678825378418 19.07400131225586 L 39.96311950683594 4.946911811828613 L 39.77089309692383 4.946911811828613 L 38.96648406982422 4.946911811828613 L 38.44347381591797 4.946911811828613 L 38.06112289428711 4.946911811828613 L 37.25479507446289 4.946911811828613 L 36.78818511962891 4.946911811828613 L 36.40632247924805 4.946911811828613 L 35.54309463500977 4.946911811828613 L 35.20827102661133 4.946911811828613 L 35.20092391967773 4.974051952362061 L 34.81827163696289 4.974051952362061 L 34.81299209594727 4.974051952362061 L 27.39624404907227 4.958091735839844 C 27.04751396179199 4.958091735839844 27.01644325256348 5.074451923370361 26.9937629699707 5.159421920776367 C 26.96046447753906 5.284696102142334 26.95459938049316 5.372229099273682 27.15403366088867 5.517106533050537 L 27.27725410461426 5.596687793731689 L 35.19710159301758 10.51018142700195 C 36.09823226928711 11.06416130065918 36.65318298339844 12.2836217880249 36.48622512817383 13.34566211700439 L 36.48438262939453 13.35739135742188 L 36.48198318481445 13.36902141571045 L 36.4481315612793 13.53312206268311 L 36.44503402709961 13.54817199707031 L 36.44101333618164 13.56299209594727 L 35.30572509765625 17.74885749816895 C 35.0418701171875 18.76335144042969 33.97568511962891 19.60080528259277 32.82377243041992 19.69770240783691 L 32.81340408325195 19.69857215881348 L 32.80299377441406 19.69901084899902 L 32.62713241577148 19.70645141601562 L 32.61657333374023 19.70690155029297 L 32.60600280761719 19.70690155029297 L 22.63041305541992 19.70690155029297 L 22.09366416931152 19.70690155029297 L 21.71424293518066 19.70690155029297 L 20.84249305725098 19.70690155029297 L 20.41941261291504 19.70690155029297 L 20.03712272644043 19.70690155029297 L 19.23151397705078 19.70690155029297 L 18.7608642578125 19.70690155029297 L 18.38220405578613 19.70690155029297 L 17.51981353759766 19.70690155029297 L 17.2041130065918 19.70690155029297 L 16.82224273681641 19.70690155029297 L 12.88051319122314 19.70690155029297 C 11.78507328033447 19.70690155029297 10.68402290344238 18.94704246520996 10.3193531036377 17.93941116333008 L 10.31540298461914 17.92848205566406 L 10.3119535446167 17.91738128662109 L 10.26541328430176 17.76733207702637 L 10.2618236541748 17.75574111938477 L 10.25879287719727 17.74398231506348 L 9.215489387512207 13.695481300354 L 6.639271259307861 14.90293121337891 L 5.423543453216553 19.33905220031738 L 5.322733402252197 19.70690155029297 L 4.941323280334473 19.70690155029297 L 3.307495035187458e-06 19.70690155029297 L -0.6539866924285889 19.70690155029297 L -0.4825066924095154 19.07580184936523 L 4.736283302307129 -0.1310982704162598 L 4.836523532867432 -0.4999982714653015 L 5.218793392181396 -0.4999982714653015 L 19.2928524017334 -0.4999982714653015 C 20.08406257629395 -0.4999982714653015 20.75859260559082 -0.2075282782316208 21.19221305847168 0.3235417306423187 C 21.5859432220459 0.8057717084884644 21.72947311401367 1.430471777915955 21.59636306762695 2.082551717758179 L 21.59446334838867 2.091861724853516 L 21.59220314025879 2.101091623306274 L 21.55523300170898 2.252581834793091 L 21.55332374572754 2.26043176651001 L 21.5511531829834 2.26820182800293 L 20.24715614318848 6.94975757598877 C 19.96435928344727 8.007847785949707 19.20803260803223 8.953647613525391 18.22361373901367 9.479971885681152 L 18.21651268005371 9.483771324157715 L 18.20929336547852 9.487331390380859 L 18.01518249511719 9.583211898803711 L 18.00997352600098 9.58579158782959 L 18.00470352172852 9.588241577148438 L 14.57645893096924 11.18358516693115 L 15.30526351928711 14.07546424865723 C 15.32584571838379 14.13504791259766 15.4048376083374 14.20564937591553 15.49759387969971 14.22514343261719 L 15.56432151794434 14.23025131225586 L 18.04344367980957 14.23025131225586 L 18.69811248779297 14.23025131225586 L 18.68999099731445 14.26002216339111 L 18.78591346740723 14.26002216339111 L 19.63426399230957 14.26002216339111 L 20.04915237426758 14.26002216339111 L 20.43206405639648 14.26002216339111 L 21.2452335357666 14.26002216339111 L 21.70614242553711 14.26002216339111 L 22.08554267883301 14.26002216339111 L 22.95705413818359 14.26002216339111 L 23.4615478515625 14.26002216339111 L 23.46901321411133 14.23265171051025 L 23.85089302062988 14.23265171051025 L 29.86337280273438 14.23265171051025 C 30.09975242614746 14.23265171051025 30.2315731048584 14.07616138458252 30.24581336975098 14.0341215133667 C 30.27829742431641 13.93502426147461 30.28712272644043 13.90817642211914 30.13466835021973 13.79185009002686 L 30.03082466125488 13.7194938659668 L 22.06215286254883 8.731951713562012 C 21.16272354125977 8.178511619567871 20.60774421691895 6.959101676940918 20.77445411682129 5.897491931915283 L 20.77630424499512 5.885711669921875 L 20.77871322631836 5.874021530151367 L 20.81256294250488 5.709961891174316 L 20.81558418273926 5.69534158706665 L 20.81947326660156 5.68092155456543 L 21.95418930053711 1.469647526741028 C 22.21774101257324 0.4547866582870483 23.26238822937012 -0.3834234774112701 24.38511276245117 -0.4804982841014862 L 24.39577293395996 -0.4814182817935944 L 24.40645408630371 -0.4818882644176483 L 24.57751274108887 -0.4893282651901245 L 24.58815383911133 -0.4897882640361786 L 24.59879302978516 -0.4897982776165009 L 36.03866195678711 -0.4999982714653015 L 36.04655456542969 -0.4999982714653015 L 36.71479415893555 -0.4999982714653015 L 36.77474212646484 -0.4999982714653015 L 37.63797378540039 -0.4999982714653015 L 38.0938835144043 -0.4999982714653015 L 38.47515487670898 -0.4999982714653015 L 39.26851272583008 -0.4999982714653015 L 39.80167388916016 -0.4999982714653015 L 40.18324279785156 -0.4999982714653015 L 40.9802131652832 -0.4999982714653015 L 41.48368835449219 -0.4999982714653015 L 41.48390197753906 -0.5007882714271545 L 41.86704254150391 -0.4999982714653015 L 46.82121276855469 -0.4897982776165009 L 47.47526168823242 -0.4884482622146606 L 47.30240249633789 0.1423417329788208 L 42.0420036315918 19.33904266357422 L 41.94120407104492 19.70690155029297 Z M 9.350299835205078 4.946911811828613 L 8.516027450561523 8.069643974304199 L 14.23868370056152 5.33480167388916 C 14.52624416351318 5.197925567626953 14.66415500640869 5.057729721069336 14.73404884338379 4.950010776519775 C 14.7084321975708 4.94808292388916 14.67954921722412 4.946911811828613 14.64730358123779 4.946911811828613 L 9.350299835205078 4.946911811828613 Z" stroke="none"/>
      <path d="M 5.218791961669922 1.9073486328125e-06 L 3.814697265625e-06 19.20690155029297 L 4.941322326660156 19.20690155029297 L 6.218063354492188 14.54815101623535 L 9.549213409423828 12.98687171936035 L 10.74297332763672 17.61921119689941 L 10.78951263427734 17.76926231384277 C 11.07611465454102 18.56119155883789 11.96589279174805 19.20690155029297 12.88051223754883 19.20690155029297 L 16.82224273681641 19.20690155029297 L 18.04344367980957 14.73025131225586 L 15.54522323608398 14.73025131225586 L 15.43551254272461 14.72185134887695 C 15.14692306518555 14.67767143249512 14.89759254455566 14.46448135375977 14.82352256774902 14.20999145507812 L 13.99055480957031 10.90475177764893 L 17.79375267028809 9.134922027587891 L 17.98786354064941 9.039041519165039 C 18.81832313537598 8.59503173828125 19.50689315795898 7.785561561584473 19.76462364196777 6.818731307983398 L 21.06949424743652 2.134040832519531 L 21.1064624786377 1.982551574707031 C 21.33130264282227 0.8811225891113281 20.54058265686035 1.9073486328125e-06 19.2928524017334 1.9073486328125e-06 L 5.218791961669922 1.9073486328125e-06 M 7.753025054931641 8.988441467285156 L 8.966342926025391 4.446911811828613 L 14.64730453491211 4.446911811828613 C 15.08870315551758 4.446911811828613 15.39217376708984 4.604811668395996 15.28197288513184 4.94585132598877 C 15.19914245605469 5.208332061767578 15.00611305236816 5.523262023925781 14.45427322387695 5.785931587219238 L 7.753025054931641 8.988441467285156 M 36.03911209106445 1.9073486328125e-06 L 24.5992431640625 0.01020240783691406 L 24.42818260192871 0.01764106750488281 C 23.51789283752441 0.09635162353515625 22.6466236114502 0.7891025543212891 22.437744140625 1.596851348876953 L 21.30225372314453 5.811001777648926 L 21.26840400695801 5.975061416625977 C 21.13731384277344 6.809822082519531 21.57403373718262 7.844532012939453 22.32742309570312 8.308121681213379 L 30.30657386779785 13.30222129821777 L 30.42889404296875 13.387451171875 C 30.76441383361816 13.64122200012207 30.82179260253906 13.8822717666626 30.72204399108887 14.18646240234375 C 30.63885307312012 14.44671154022217 30.30657386779785 14.73265171051025 29.86337280273438 14.73265171051025 L 23.85089302062988 14.73265171051025 L 22.63041305541992 19.20690155029297 L 32.60600280761719 19.20690155029297 L 32.78186416625977 19.19946098327637 C 33.71807098388672 19.12071228027344 34.61420440673828 18.42794227600098 34.82259368896484 17.62005233764648 L 35.95844268798828 13.4321117401123 L 35.99229431152344 13.26801109313965 C 36.12350463867188 12.43335151672363 35.6870231628418 11.39829158782959 34.93351364135742 10.93505191802979 L 27.00958251953125 6.019031524658203 L 26.87214279174805 5.930261611938477 C 26.53277397155762 5.688032150268555 26.41237258911133 5.400362014770508 26.51068305969238 5.030431747436523 C 26.62173271179199 4.614542007446289 26.95424270629883 4.458091735839844 27.39732360839844 4.458091735839844 L 34.81827545166016 4.474051475524902 L 34.82259368896484 4.458091735839844 L 36.04655456542969 1.9073486328125e-06 L 36.03911209106445 1.9073486328125e-06 M 36.77473449707031 1.9073486328125e-06 L 36.77185440063477 0.01014137268066406 L 35.54309463500977 4.446911811828613 L 36.40632247924805 4.446911811828613 L 36.41064453125 4.431041717529297 L 37.65753173828125 0.01014137268066406 L 37.63532257080078 0.01014137268066406 L 37.63797378540039 1.9073486328125e-06 L 36.77473449707031 1.9073486328125e-06 M 38.47515106201172 1.9073486328125e-06 L 37.25479125976562 4.446911811828613 L 38.06112289428711 4.446911811828613 L 39.26851272583008 1.9073486328125e-06 L 38.47515106201172 1.9073486328125e-06 M 40.18324279785156 1.9073486328125e-06 L 38.96648406982422 4.446911811828613 L 39.77089309692383 4.446911811828613 L 40.9802131652832 1.9073486328125e-06 L 40.18324279785156 1.9073486328125e-06 M 41.86600494384766 1.9073486328125e-06 L 41.86324310302734 0.01020240783691406 L 41.84296417236328 0.01020240783691406 L 36.54989242553711 19.20690155029297 L 41.55978393554688 19.20690155029297 L 46.82018280029297 0.01020240783691406 L 41.86600494384766 1.9073486328125e-06 M 18.78591346740723 14.7600212097168 L 18.78327369689941 14.7686710357666 L 17.51981353759766 19.20690155029297 L 18.38220405578613 19.20690155029297 L 19.63425254821777 14.7600212097168 L 18.78591346740723 14.7600212097168 M 20.43206405639648 14.7600212097168 L 19.23151397705078 19.20690155029297 L 20.03712272644043 19.20690155029297 L 21.2452335357666 14.7600212097168 L 20.43206405639648 14.7600212097168 M 22.08554267883301 14.7600212097168 L 20.84249305725098 19.20690155029297 L 21.71424293518066 19.20690155029297 L 22.95705413818359 14.7600212097168 L 22.08554267883301 14.7600212097168 M 41.10105133056641 -1.001577377319336 L 42.28847503662109 -0.9999980926513672 L 42.28823852539062 -0.9991340637207031 L 48.13033294677734 -0.9870986938476562 L 42.32262420654297 20.20690155029297 L 35.23685455322266 20.20690155029297 L 39.30658721923828 5.446911811828613 L 35.59092712402344 5.446911811828613 L 35.58358383178711 5.474051475524902 L 34.81299209594727 5.474051475524902 L 28.00440788269043 5.459402084350586 L 35.46070098876953 10.08530139923096 C 36.53935241699219 10.74842166900635 37.17983245849609 12.153151512146 36.98016357421875 13.42330169677734 L 36.97167205810547 13.47003173828125 L 36.9235725402832 13.69387149810791 L 35.78932189941406 17.87592506408691 C 35.47396087646484 19.08525848388672 34.21834564208984 20.08216667175293 32.86568450927734 20.19594192504883 L 32.82413482666016 20.19857215881348 L 32.60600280761719 20.20690155029297 L 12.88051223754883 20.20690155029297 C 11.56386184692383 20.20690155029297 10.28900146484375 19.32484245300293 9.849193572998047 18.10956192016602 L 9.834403991699219 18.06550216674805 L 9.774612426757812 17.86876106262207 L 8.881763458251953 14.40408706665039 L 7.060482025146484 15.25770473480225 L 5.704143524169922 20.20690155029297 L -1.307968139648438 20.20690155029297 L 4.454254150390625 -0.9999980926513672 L 19.2928524017334 -0.9999980926513672 C 20.22337341308594 -0.9999980926513672 21.05682373046875 -0.6328487396240234 21.57951354980469 0.007322311401367188 C 21.69722557067871 0.1514911651611328 21.79706573486328 0.3055763244628906 21.87854957580566 0.4675674438476562 C 22.4222469329834 -0.3191852569580078 23.35738945007324 -0.8935031890869141 24.34203338623047 -0.9786376953125 L 24.38473320007324 -0.9814186096191406 L 24.59835243225098 -0.9897975921630859 L 41.10105133056641 -1.001577377319336 Z M 12.84450531005859 5.446911811828613 L 9.734260559082031 5.446911811828613 L 9.279037475585938 7.150839805603027 L 12.84450531005859 5.446911811828613 Z M 21.80029106140137 9.157915115356445 C 21.24114036560059 8.812888145446777 20.80024147033691 8.270358085632324 20.5326099395752 7.651275634765625 C 20.12759399414062 8.603404998779297 19.3828296661377 9.427175521850586 18.45936393737793 9.92091178894043 L 18.43073272705078 9.93563175201416 L 18.21566390991211 10.0415620803833 L 15.16236114501953 11.46242523193359 L 15.73388671875 13.73025131225586 L 19.35277366638184 13.73025131225586 L 19.34465217590332 13.7600212097168 L 23.07966804504395 13.7600212097168 L 23.08713340759277 13.73265171051025 L 29.10941886901855 13.73265171051025 L 21.80029106140137 9.157915115356445 Z" stroke="none" fill="#000"/>
    </g>
    <g id="Path_602" data-name="Path 602" transform="translate(8.218)" fill="rgba(0,0,0,0.4)" fill-rule="evenodd">
      <path d="M 44.72049331665039 7.702584743499756 C 43.28909301757812 7.702584743499756 42.2542839050293 7.379534721374512 41.55691528320312 6.714964389801025 C 40.8457145690918 6.037224292755127 40.49999618530273 5.024094581604004 40.49999618530273 3.617684602737427 C 40.49999618530273 0.8469045162200928 41.88053512573242 -0.4999954700469971 44.72049331665039 -0.4999954700469971 C 46.14748382568359 -0.4999954700469971 47.17500305175781 -0.16959547996521 47.86179351806641 0.5100744962692261 C 48.54888534545898 1.190054535865784 48.88288497924805 2.206554412841797 48.88288497924805 3.617684602737427 C 48.88288497924805 6.404574394226074 47.56025314331055 7.702584743499756 44.72049331665039 7.702584743499756 Z M 44.59112548828125 6.101293563842773 C 44.63368606567383 6.102014064788818 44.67677688598633 6.10237455368042 44.72049331665039 6.10237455368042 C 44.77983093261719 6.10237455368042 44.83798980712891 6.101743221282959 44.89497375488281 6.100479602813721 C 44.87406921386719 6.07453441619873 44.85575485229492 6.048806190490723 44.83949279785156 6.024414539337158 L 44.8361930847168 6.019464492797852 L 44.83301544189453 6.014434337615967 L 44.67514419555664 5.764959335327148 L 44.67514419555664 5.77947473526001 C 44.67514419555664 5.901873588562012 44.6451301574707 6.011168956756592 44.59112548828125 6.101293563842773 Z M 42.54073333740234 1.79706084728241 C 42.24464797973633 2.178970575332642 42.10021591186523 2.777456045150757 42.10021591186523 3.617684602737427 C 42.10021591186523 4.456281661987305 42.24462127685547 5.050129413604736 42.54073333740234 5.424509525299072 L 42.54073333740234 1.79706084728241 Z M 46.33155059814453 4.500001430511475 L 46.89015197753906 5.390482425689697 C 47.15390777587891 5.01600456237793 47.28267288208008 4.432575702667236 47.28267288208008 3.617684602737427 C 47.28267288208008 2.655824422836304 47.10391616821289 2.011374473571777 46.73618316650391 1.647494554519653 C 46.53207778930664 1.445484519004822 46.24153137207031 1.300419569015503 45.85836410522461 1.210613131523132 C 46.56113052368164 1.464536547660828 46.8845329284668 2.047772407531738 46.8845329284668 3.013684511184692 C 46.8845329284668 3.532495975494385 46.80965805053711 4.128459930419922 46.33155059814453 4.500001430511475 Z" stroke="none"/>
      <path d="M 44.72049331665039 4.291534423828125e-06 C 42.16477584838867 4.291534423828125e-06 40.99999618530273 1.102004528045654 40.99999618530273 3.617684602737427 C 40.99999618530273 6.131994247436523 42.16477584838867 7.202584743499756 44.72049331665039 7.202584743499756 C 47.27621459960938 7.202584743499756 48.38288497924805 6.131994247436523 48.38288497924805 3.617684602737427 C 48.38288497924805 1.102004528045654 47.27621459960938 4.291534423828125e-06 44.72049331665039 4.291534423828125e-06 M 44.72049331665039 6.60237455368042 C 43.50949478149414 6.60237455368042 42.76475524902344 6.346164703369141 42.31591415405273 5.918484687805176 C 41.87355422973633 5.496874809265137 41.60021591186523 4.794304847717285 41.60021591186523 3.617684602737427 C 41.60021591186523 2.440444469451904 41.87355422973633 1.727394580841064 42.31891250610352 1.29712438583374 C 42.76871490478516 0.8625445365905762 43.51345443725586 0.6002144813537598 44.72049331665039 0.6002144813537598 C 45.92800521850586 0.6002144813537598 46.65402603149414 0.8626947402954102 47.08786392211914 1.292084693908691 C 47.5203857421875 1.720064640045166 47.78267288208008 2.433014392852783 47.78267288208008 3.617684602737427 C 47.78267288208008 4.801824569702148 47.5203857421875 5.504234313964844 47.09086608886719 5.923494338989258 C 46.65799331665039 6.345974445343018 45.93197250366211 6.60237455368042 44.72049331665039 6.60237455368042 M 44.83417510986328 1.560564517974854 C 44.26156616210938 1.560564517974854 43.69436264038086 1.582164287567139 43.12176513671875 1.636184692382812 C 43.05693435668945 1.641594409942627 43.04073333740234 1.65779447555542 43.04073333740234 1.706414699554443 L 43.04073333740234 5.779474258422852 C 43.04073333740234 5.849704742431641 43.05693435668945 5.865904808044434 43.12176513671875 5.865904808044434 L 44.0941047668457 5.865904808044434 C 44.158935546875 5.865904808044434 44.17514419555664 5.849704742431641 44.17514419555664 5.779474258422852 L 44.17514419555664 4.364164352416992 L 44.38041305541992 4.364164352416992 L 45.25552368164062 5.747064590454102 C 45.30954360961914 5.828094482421875 45.34735488891602 5.865904808044434 45.47160339355469 5.865904808044434 L 46.4655647277832 5.865904808044434 C 46.54658508300781 5.865904808044434 46.57360458374023 5.817294597625732 46.5303840637207 5.757874488830566 L 45.61205291748047 4.293944358825684 C 46.18466567993164 4.148094177246094 46.3845329284668 3.786164522171021 46.3845329284668 3.013684749603271 C 46.3845329284668 1.960304737091064 45.99019622802734 1.560564517974854 44.83417510986328 1.560564517974854 M 44.70993423461914 3.532274484634399 L 44.17514419555664 3.532274484634399 L 44.17514419555664 2.54911470413208 L 44.70993423461914 2.54911470413208 C 45.11507415771484 2.54911470413208 45.23391342163086 2.700374603271484 45.23391342163086 3.051494598388672 C 45.23391342163086 3.408024549484253 45.11507415771484 3.532274484634399 44.70993423461914 3.532274484634399 M 44.72049331665039 -0.999995231628418 C 46.28581619262695 -0.999995231628418 47.42839431762695 -0.6222953796386719 48.21350479125977 0.1546845436096191 C 49.00037384033203 0.9334144592285156 49.38288497924805 2.066174507141113 49.38288497924805 3.617684602737427 C 49.38288497924805 5.168434619903564 48.99877548217773 6.297234535217285 48.20862579345703 7.06857442855835 C 47.42693328857422 7.831644535064697 46.28595352172852 8.202584266662598 44.72049331665039 8.202584266662598 C 41.58820343017578 8.202584266662598 39.99999618530273 6.660004615783691 39.99999618530273 3.617684602737427 C 39.99999618530273 2.066464424133301 40.39482498168945 0.9309544563293457 41.20703506469727 0.1462745666503906 C 42.00542449951172 -0.6250452995300293 43.15468597412109 -0.999995231628418 44.72049331665039 -0.999995231628418 Z" stroke="none" fill="#000"/>
    </g>
  </g>
</svg>
