<svg xmlns="http://www.w3.org/2000/svg" width="89.654" height="131.681" viewBox="0 0 89.654 131.681">
  <path id="Path_221" data-name="Path 221" d="M126.2,114.55a17.5,17.5,0,0,1-7.7-10.773,18.6,18.6,0,0,0,7.342,13.457,74.64,74.64,0,0,0-.537,13.947l.559.022a216.831,216.831,0,0,1,6.853-25.158c.138-.119.276-.237.406-.345a26.689,26.689,0,0,1,19.638-5.561,29,29,0,0,0-18.173.489q.744-2.073,1.519-4.135.435-1.132.876-2.267a39.478,39.478,0,0,1,10.812-4.5,26.9,26.9,0,0,1,13.923.235l.488-1.639a100.055,100.055,0,0,1,15.418-29.367,95.606,95.606,0,0,1,8.221-9.463c5.007-5.232,9.307-11.833,9.481-19.295a71.368,71.368,0,0,0,9-12.447,23.826,23.826,0,0,0,2.308-15.676c-4.07-1.9-8.8-1.735-13.175-1.292a57.723,57.723,0,0,0-24.669,9.442,52.178,52.178,0,0,0-9.858,8.593,23.265,23.265,0,0,0-6.757,5.563,117.4,117.4,0,0,0-10.151,13.849,30.223,30.223,0,0,0-2.815,5.421c-.091.318-.456,1.75-.63,2.41-4.379,4.427-7.1,10.214-9.032,16.069-1.339,6.112-.669,12.536.173,18.675a78.032,78.032,0,0,0,2.286,10.523c-1.192,3.346-2.252,6.738-3.157,10.18a24.937,24.937,0,0,1-9.526-17.238A26.761,26.761,0,0,0,127.79,105.9c-.5,2.25-.944,4.517-1.31,6.806-.1.613-.188,1.228-.277,1.844m4.014-40.03c-.264-4-.585-8.161.453-12.063,1.9-5.646,4.909-11.251,9.478-15.172l.179-.154.113-.341c.247-.667.676-2.223,1.005-2.848,2.059-3.956,5.023-7.461,7.81-10.959,3.556-4.208,6.777-8.956,11.774-11.526a59.957,59.957,0,0,1,32.7-18.992c4.118-.818,8.556-1.226,12.612-.156.953,10.908-6.21,19.1-13.437,26.391l-.354.359-.025.579c-.236,5.367-3.057,10.24-6.5,14.29-2.771,3.19-6.043,5.988-8.761,9.271a91.876,91.876,0,0,0-18.011,32.627,28.4,28.4,0,0,0-12.27.787,39.079,39.079,0,0,0-8.377,3.45,231.972,231.972,0,0,1,10.026-22.486c12.017-22.815,28.941-42.726,48.587-59.417l-.347-.439a205.111,205.111,0,0,0-27.5,24.332c-15,16.484-28.277,35.433-36.291,56.352a70.807,70.807,0,0,1-2.869-13.885" transform="translate(-118 -0.039)" fill="rgba(135,21,25,0.4)" stroke="#871519" stroke-width="1" opacity="0.4"/>
</svg>
