<svg xmlns="http://www.w3.org/2000/svg" width="89.654" height="131.681" viewBox="0 0 89.654 131.681">
  <path id="Path_220" data-name="Path 220" d="M8.2,114.55A17.5,17.5,0,0,1,.5,103.777a18.6,18.6,0,0,0,7.342,13.457A74.64,74.64,0,0,0,7.3,131.181l.559.022a216.832,216.832,0,0,1,6.853-25.158c.138-.119.276-.237.406-.345a26.689,26.689,0,0,1,19.638-5.561,29,29,0,0,0-18.173.489q.744-2.073,1.519-4.135.435-1.132.876-2.267a39.478,39.478,0,0,1,10.812-4.5,26.9,26.9,0,0,1,13.923.235l.488-1.639A100.056,100.056,0,0,1,59.623,58.959,95.6,95.6,0,0,1,67.844,49.5c5.007-5.232,9.307-11.833,9.481-19.295a71.367,71.367,0,0,0,9-12.447A23.827,23.827,0,0,0,88.633,2.078C84.563.182,79.836.343,75.458.786a57.723,57.723,0,0,0-24.669,9.442,52.178,52.178,0,0,0-9.858,8.593,23.265,23.265,0,0,0-6.757,5.563A117.4,117.4,0,0,0,24.023,38.233a30.222,30.222,0,0,0-2.815,5.421c-.091.318-.456,1.75-.63,2.41-4.379,4.427-7.1,10.214-9.032,16.069-1.339,6.112-.669,12.536.173,18.675a78.032,78.032,0,0,0,2.286,10.523c-1.192,3.346-2.252,6.738-3.157,10.18A24.937,24.937,0,0,1,1.322,84.273,26.761,26.761,0,0,0,9.79,105.9c-.5,2.25-.944,4.517-1.31,6.806C8.383,113.319,8.292,113.934,8.2,114.55Zm4.014-40.03c-.264-4-.585-8.161.453-12.063,1.9-5.646,4.909-11.251,9.478-15.172l.179-.154.113-.341c.247-.667.676-2.223,1-2.848,2.059-3.956,5.023-7.461,7.81-10.959,3.556-4.208,6.777-8.956,11.774-11.526a59.957,59.957,0,0,1,32.7-18.992c4.118-.818,8.556-1.226,12.612-.156.953,10.908-6.21,19.1-13.437,26.391l-.354.359-.025.579c-.236,5.367-3.057,10.24-6.5,14.29-2.771,3.19-6.043,5.988-8.761,9.271A91.876,91.876,0,0,0,41.255,85.826a28.4,28.4,0,0,0-12.27.787,39.08,39.08,0,0,0-8.377,3.45A231.975,231.975,0,0,1,30.634,67.577C42.651,44.762,59.575,24.851,79.221,8.16l-.347-.439a205.111,205.111,0,0,0-27.5,24.332C36.376,48.537,23.1,67.486,15.086,88.4A70.806,70.806,0,0,1,12.217,74.52Z" transform="translate(0 -0.039)" fill="none" stroke="#071f37" stroke-miterlimit="10" stroke-width="1" opacity="0.05"/>
</svg>
