<svg xmlns="http://www.w3.org/2000/svg" width="55" height="55" viewBox="0 0 55 55"><g transform="translate(0.5 0.5)" opacity="0.05"><path d="M54,26.994a27.354,27.354,0,0,1-.422,4.64A28.931,28.931,0,0,0,41.462,46.155a42.076,42.076,0,0,0,1.413-5.243c.063-.321.127-.641.181-.966a1.307,1.307,0,0,0,.034-.177c.051-.3.1-.59.143-.886a.445.445,0,0,1,.03-.194c.046-.3.089-.6.122-.9s.076-.586.105-.882a.072.072,0,0,1,0-.03c0-.152.03-.3.042-.451.025-.232.046-.46.063-.692v-.194c.03-.354.055-.709.072-1.067.038-.73.055-1.464.055-2.2s-.021-1.506-.055-2.252a43.435,43.435,0,0,0-4.122-16.449.038.038,0,0,0,0-.025v.025A43.389,43.389,0,0,0,35.6,27.765c-.038.388-.072.78-.105,1.177s-.059.717-.059,1.084c-.038.73-.055,1.464-.055,2.2v.051c0,.738,0,1.472.055,2.2,0,.312.038.628.059.945l.025.321c0,.228.038.451.059.679a.869.869,0,0,0,.03.274.589.589,0,0,1,0,.228,4.177,4.177,0,0,0,.068.557c.025.186.03.291.051.422.025.211.055.422.089.628s.046.346.076.519c.046.3.1.586.148.877a.042.042,0,0,0,0,.038A42.549,42.549,0,0,0,37.623,46.2,28.9,28.9,0,0,0,20.2,29.153,28.846,28.846,0,0,0,35.438,49.6a26.769,26.769,0,0,0-8.054-1.843c-.645-.046-1.3-.072-1.953-.072a26.883,26.883,0,0,0-8.045,1.24,26.664,26.664,0,0,0,3.029,2.025h0a26.86,26.86,0,0,0,7.952,3.016c-.451,0-.911.034-1.371.034A27,27,0,0,1,.114,29.486Q0,28.257,0,26.994A27,27,0,0,1,27,0a26.078,26.078,0,0,1,2.645.131H29.7c.738.072,1.468.177,2.19.308.207.038.422.076.616.122a26.667,26.667,0,0,1,4.362,1.3,27,27,0,0,1,7.172,4.218h0A26.924,26.924,0,0,1,54,26.994Z" transform="translate(0 0)" fill="none" stroke="#36495d" stroke-width="1"/></g></svg>