<?xml version="1.0" encoding="UTF-8"?>
<svg id="Layer_2" data-name="Layer 2" xmlns="http://www.w3.org/2000/svg" viewBox="0 0 128.24 106.24">
  <defs>
    <style>
      .cls-1 {
        stroke-linecap: round;
        stroke-linejoin: round;
      }

      .cls-1, .cls-2, .cls-3 {
        stroke: #5f6f5b;
      }

      .cls-1, .cls-3 {
        fill: none;
      }

      .cls-4 {
        fill: #eadbce;
      }

      .cls-5, .cls-2 {
        fill: #aebdaa;
      }

      .cls-6 {
        fill: #dc8782;
      }

      .cls-7 {
        fill: #5f6f5b;
      }

      .cls-8 {
        fill: #788974;
      }

      .cls-2, .cls-3 {
        stroke-miterlimit: 10;
      }
    </style>
  </defs>
  <g id="Layer_1-2" data-name="Layer 1">
    <path class="cls-4" d="m105.05,49.63s-.92,4.09-1.61,11.19c-3.46,5.67-8.78,10.95-16.97,14.05-9.53,3.59-15.42,9.38-18.98,14.51-1.2.2-2.38.83-3.37,2-.99-1.17-2.17-1.8-3.37-2-3.56-5.13-9.45-10.91-18.98-14.51-8.19-3.1-13.51-8.38-16.97-14.05-.7-7.1-1.61-11.19-1.61-11.19,0,0-.71-3.67,1.12-7.05,1.84-3.39,4.1-12.26,4.1-12.26,0,0,.95-2.74,2.4-1.45,1.04.93,2.4,2.68.7,10.59l-1.49,6.7c-.23,1.17-.11,2.37.33,3.47,1.39,3.49,4.34,12.4,6.53,13.56,2.68,1.41,5.19.74,5.19.74,0,0-4.98-7.3-7.59-16.81,0,0-1-3.35,1.05-4.13,2.51-.97,3.11-.09,3.61,1.41,2.8,8.5,9.82,20.31,19.62,29.93,3.32,3.25,4.74,7.89,5.22,12.4.63-4.5,2.17-9.13,5.5-12.4,9.8-9.62,16.82-21.43,19.62-29.93.49-1.5,1.1-2.38,3.61-1.41,2.05.78,1.05,4.13,1.05,4.13-2.61,9.51-7.59,16.81-7.59,16.81,0,0,2.51.67,5.19-.74,2.19-1.16,5.14-10.07,6.53-13.56.44-1.1.55-2.3.33-3.47l-1.5-6.7c-1.69-7.91-.33-9.66.71-10.59,1.44-1.29,2.4,1.45,2.4,1.45,0,0,2.26,8.87,4.09,12.26,1.84,3.38,1.13,7.05,1.13,7.05Z"/>
    <g>
      <path class="cls-5" d="m60.75,89.38c-1.3-.24-2.61.03-3.75.64-6.16-4.36-14.16-8.92-22.77-10.94-.89-.21-1.78-.39-2.67-.54-5.19-.88-10.95-4.18-15.85-8.61-8.72-16.1,2.75-33.46,2.75-33.46,0,0-.6,12.97,6.34,24.35,3.46,5.67,8.78,10.95,16.97,14.05,9.53,3.6,15.42,9.38,18.98,14.51Z"/>
      <path class="cls-5" d="m112.77,69.48c-4.98,4.59-10.91,8.02-16.22,8.92-.75.13-1.5.27-2.24.44-8.8,1.97-17,6.62-23.29,11.07-1.08-.53-2.32-.76-3.53-.53,3.56-5.13,9.45-10.92,18.98-14.51,8.19-3.1,13.51-8.38,16.97-14.05,6.94-11.38,6.34-24.35,6.34-24.35,0,0,11.26,17.04,2.99,33.01Z"/>
    </g>
    <path class="cls-8" d="m34.23,79.08c-.89-.21-1.78-.39-2.67-.54-5.19-.88-10.95-4.18-15.85-8.61-4.66-4.22-8.53-9.47-10.37-14.64,0,0-2.44,21.09,13.37,30.62t.02.01c4.88,1.28,10.64,1.97,17.21,1.36.89-.08,1.79-.18,2.71-.31,1.64-.23,3.67-.25,5.85.01,3.72.43,7.88,1.64,11.31,3.88.36-.32.76-.61,1.19-.84-6.16-4.36-14.16-8.92-22.77-10.94Zm88.68-24.05c-1.81,5.1-5.59,10.26-10.14,14.45-4.98,4.59-10.91,8.02-16.22,8.92-.75.13-1.5.27-2.24.44-8.8,1.97-17,6.62-23.29,11.07.51.25.99.57,1.41.95,3.42-2.23,7.58-3.44,11.29-3.88h.01c2.19-.26,4.23-.24,5.87-.01.92.13,1.82.23,2.71.31,6.36.59,11.97-.04,16.75-1.24,16.34-9.46,13.85-31.01,13.85-31.01Z"/>
    <path class="cls-8" d="m55.42,4.75c-5.36-.1-4.01-3.92-4.01-3.92.83-.22,1.7-.33,2.6-.33h6.16s.61,4.34-4.75,4.25Z"/>
    <path class="cls-1" d="m52.31,21.23c-4.95-.81-8.73-5.11-8.73-10.3,0-2.88,1.17-5.49,3.05-7.38,1.3-1.29,2.94-2.25,4.78-2.72"/>
    <path class="cls-8" d="m72.84,4.75c-5.36.09-4.74-4.25-4.74-4.25h6.15c.9,0,1.77.11,2.6.33,0,0,1.35,3.82-4.01,3.92Z"/>
    <path class="cls-3" d="m64.12,49.41c-3.78,0-6.84,3.06-6.84,6.84s3.06,6.84,6.84,6.84h0c2.88,0,5.49-1.17,7.37-3.06,1.89-1.88,3.06-4.49,3.06-7.37s-1.17-5.49-3.06-7.37c-1.88-1.89-4.49-3.06-7.37-3.06h-3.95c-2.88,0-5.49-1.17-7.38-3.06-2.04-2.04-3.25-4.95-3.02-8.13.39-5.52,5.21-9.68,10.74-9.68h7.56s6.39-.11,6.39-.11c1.86-.03,3.72-.47,5.29-1.45.91-.57,1.73-1.27,2.42-2.09,1.56-1.82,2.51-4.19,2.51-6.79,0-4.86-3.33-8.95-7.83-10.1"/>
    <path class="cls-3" d="m64.12,56.25c1.89,0,3.42-1.53,3.42-3.42s-1.53-3.42-3.42-3.42"/>
    <g>
      <path class="cls-7" d="m58.85,102.11c-12.71,1.29-51.89,2.82-58.85-26.21,0,0,6.64,6.84,18.71,10.01t.02.01c4.88,1.28,10.64,1.97,17.21,1.36.89-.08,1.79-.18,2.71-.31,1.64-.23,3.67-.25,5.85.01,3.72.43,7.88,1.64,11.31,3.88-1.9,1.68-2.78,4.49-1.01,7.27.04.06.08.12.11.19.73,1.08,1.66,2,2.69,2.81l1.25.98Z"/>
      <path class="cls-7" d="m128.24,75.9c-6.96,29.03-46.14,27.5-58.85,26.21l1.25-.98c1.03-.81,1.96-1.73,2.69-2.81.04-.07.07-.13.11-.19,1.77-2.78.89-5.59-1.01-7.27,3.42-2.23,7.58-3.44,11.29-3.88h.01c2.19-.26,4.23-.24,5.87-.01.92.13,1.82.23,2.71.31,6.36.59,11.97-.04,16.75-1.24,12.37-3.12,19.18-10.14,19.18-10.14Z"/>
    </g>
    <path class="cls-6" d="m73.44,98.13c-.04.06-.07.12-.11.19-.73,1.08-1.66,2-2.69,2.81l-1.25.98-5.27,4.13-5.27-4.13-1.25-.98c-1.03-.81-1.96-1.73-2.69-2.81-.03-.07-.07-.13-.11-.19-1.77-2.78-.89-5.59,1.01-7.27.36-.32.76-.61,1.19-.84,1.14-.61,2.45-.88,3.75-.64,1.2.2,2.38.83,3.37,2,.99-1.17,2.17-1.8,3.37-2,1.21-.23,2.45,0,3.53.53.51.25.99.57,1.41.95,1.9,1.68,2.78,4.49,1.01,7.27Z"/>
    <path class="cls-1" d="m64.12,52.83c-.94,0-1.71.77-1.71,1.71s.77,1.71,1.71,1.71"/>
    <path class="cls-2" d="m51.41.83c.83-.22,1.7-.33,2.6-.33h6.16"/>
    <path class="cls-2" d="m68.1.5h6.15c.9,0,1.77.11,2.6.33"/>
  </g>
</svg>