<svg xmlns="http://www.w3.org/2000/svg" width="54.4" height="34.591" viewBox="0 0 54.4 34.591">
  <g id="b" transform="translate(0.5 0.5)" opacity="0.049">
    <g id="c" transform="translate(0 0)">
      <g id="Group_319" data-name="Group 319" transform="translate(0 0)">
        <path id="Path_187" data-name="Path 187" d="M29.576,17.5l-.482.689-1.964,2.8a2.313,2.313,0,0,1-.267.379,2.543,2.543,0,0,1-1.042.741,2.483,2.483,0,0,1-.93.177,2.589,2.589,0,0,1-1.99-.93l-.009-.009-.207-.3L20.11,17.376l2.549-3.639a.216.216,0,0,1,.026-.034,2.579,2.579,0,0,1,4.229,0l.039.056L29.576,17.5Z" transform="translate(-11.45 -7.174)" fill="none" stroke="#071f37" stroke-width="1" opacity="0.5"/>
        <path id="Path_188" data-name="Path 188" d="M53.4,6.029V31.007a2.586,2.586,0,0,1-2.584,2.584H2.584A2.586,2.586,0,0,1,0,31.007V6.029A2.582,2.582,0,0,1,4.7,4.548a.141.141,0,0,1,.026.034L8.66,10.2l2.575,3.678a2.816,2.816,0,0,0,.207.3l.009.009a2.589,2.589,0,0,0,1.99.93,2.483,2.483,0,0,0,.93-.177,2.543,2.543,0,0,0,1.042-.741,2.313,2.313,0,0,0,.267-.379l1.964-2.8.482-.689,6.434-9.19.017-.026a2.584,2.584,0,0,1,4.246,0l.017.026,6.434,9.19.482.689,1.964,2.8a2.313,2.313,0,0,0,.267.379,2.543,2.543,0,0,0,1.042.741,2.483,2.483,0,0,0,.93.177,2.589,2.589,0,0,0,1.99-.93l.009-.009a2.817,2.817,0,0,0,.207-.3L44.74,10.2l3.936-5.62a.216.216,0,0,1,.026-.034,2.582,2.582,0,0,1,4.7,1.481Z" transform="translate(0 0)" fill="none" stroke="#071f37" stroke-width="1"/>
        <path id="Path_189" data-name="Path 189" d="M81.91,17.5l.482.689,1.964,2.8a2.313,2.313,0,0,0,.267.379,2.543,2.543,0,0,0,1.042.741,2.483,2.483,0,0,0,.93.177,2.589,2.589,0,0,0,1.99-.93l.009-.009.207-.3,2.575-3.678-2.549-3.639A.216.216,0,0,0,88.8,13.7a2.579,2.579,0,0,0-4.229,0l-.039.056L81.91,17.5Z" transform="translate(-46.636 -7.174)" fill="none" stroke="#071f37" stroke-width="1" opacity="0.5"/>
      </g>
    </g>
  </g>
</svg>
