<svg xmlns="http://www.w3.org/2000/svg" width="57.2" height="63.065" viewBox="0 0 57.2 63.065"><g transform="translate(-1123.721 -244.005)" fill="none" opacity="0.05"><path d="M1165.248,283.72c-2.5-.942-6.453-1.86-9.242-3.58,1.895-.139,4.569-.6,7.428-.953,2.325,1.825,4.884,3.359,7.708,3.359a6.675,6.675,0,0,0,6.593-6.741,1.92,1.92,0,0,0-.012-.267,1.762,1.762,0,0,0,.012-.256,6.122,6.122,0,0,0-1.582-4.393h-.012a6.057,6.057,0,0,0-5-2.359c-2.824,0-5.394,1.534-7.719,3.37-2.848-.348-5.51-.813-7.394-.965,2.789-1.708,6.731-2.626,9.219-3.568,4.592-1.72,14.672-3.638,14.672-14.191,0-5.009-3.012-8.171-7.812-8.171h-39.575c-4.8,0-7.812,3.162-7.812,8.171,0,10.553,10.079,12.471,14.671,14.191,2.488.941,6.43,1.859,9.22,3.568-1.9.152-4.558.616-7.395.965-2.325-1.836-4.895-3.37-7.719-3.37a6.058,6.058,0,0,0-5,2.359h-.012a6.122,6.122,0,0,0-1.581,4.393,1.911,1.911,0,0,0,.011.256,2.082,2.082,0,0,0-.011.267,6.673,6.673,0,0,0,6.592,6.741c2.825,0,5.383-1.534,7.708-3.359,2.848.348,5.533.814,7.429.953-2.79,1.72-6.744,2.638-9.243,3.58-4.592,1.708-14.671,3.625-14.671,14.19,0,5.01,3.011,8.159,7.812,8.159h39.575c4.8,0,7.813-3.15,7.813-8.159C1179.921,287.345,1169.841,285.428,1165.248,283.72Zm-6.127-8.171c-1.662,1.36-3.174,2.383-4.58,2.383a3.164,3.164,0,0,1-.349-.023,4.842,4.842,0,0,0,.57-2.244.4.4,0,0,0-.012-.116.471.471,0,0,0,.012-.128,4.84,4.84,0,0,0-.559-2.243,3,3,0,0,1,.338-.023C1155.948,273.155,1157.459,274.177,1159.122,275.549Zm-16.567-14.284c-3.709-3.092-10.091-9.333-10.975-11.8a1.484,1.484,0,0,1,1.43-2.127c3.441,0,9.2,7.95,17.357,7.95a10.335,10.335,0,0,1,3.906,0c8.162,0,13.916-7.95,17.346-7.95a1.486,1.486,0,0,1,1.441,2.127c-.884,2.464-7.266,8.7-10.974,11.8-2.1,1.743-6.86,5.392-9.766,9.089C1149.414,266.657,1144.659,263.008,1142.555,261.265Zm2.964,14.284c1.662-1.371,3.174-2.394,4.581-2.394a2.986,2.986,0,0,1,.337.023,4.841,4.841,0,0,0-.558,2.243.491.491,0,0,0,.011.128.412.412,0,0,0-.011.116,4.841,4.841,0,0,0,.569,2.244,3.158,3.158,0,0,1-.348.023C1148.693,277.932,1147.182,276.909,1145.519,275.549Zm26.1,28.2c-3.43,0-9.185-7.962-17.346-7.962a10.336,10.336,0,0,1-3.906,0c-8.162,0-13.916,7.962-17.357,7.962a1.484,1.484,0,0,1-1.43-2.127c.884-2.475,7.266-8.716,10.975-11.8,2.1-1.744,6.859-5.382,9.765-9.089,2.906,3.707,7.662,7.346,9.766,9.089,3.709,3.08,10.091,9.321,10.974,11.8A1.486,1.486,0,0,1,1171.619,303.745Z" stroke="none"/><path d="M 1172.108154296875 306.0696411132812 C 1176.908935546875 306.0696411132812 1179.920654296875 302.9201049804688 1179.920654296875 297.910400390625 C 1179.920654296875 287.3453979492188 1169.840576171875 285.4283447265625 1165.248291015625 283.7199096679688 C 1162.748779296875 282.7778930664062 1158.795654296875 281.85986328125 1156.006103515625 280.1394653320312 C 1157.900634765625 280.0005493164062 1160.5751953125 279.5352172851562 1163.434326171875 279.1868286132812 C 1165.759521484375 281.0115966796875 1168.31787109375 282.5458984375 1171.142333984375 282.5458984375 C 1173.386962890625 282.5458984375 1175.060302734375 281.6038818359375 1176.153564453125 280.1859130859375 C 1177.24609375 279.0240478515625 1177.735107421875 277.5828247070312 1177.735107421875 275.8045654296875 C 1177.735107421875 275.7114868164062 1177.735107421875 275.63037109375 1177.72265625 275.537353515625 C 1177.735107421875 275.4555053710938 1177.735107421875 275.3632202148438 1177.735107421875 275.2814331054688 C 1177.735107421875 273.503173828125 1177.24609375 272.0619506835938 1176.153564453125 270.8880004882812 L 1176.141845703125 270.8880004882812 C 1175.04931640625 269.4700927734375 1173.386962890625 268.52880859375 1171.142333984375 268.52880859375 C 1168.31787109375 268.52880859375 1165.74853515625 270.0630493164062 1163.423095703125 271.8990478515625 C 1160.5751953125 271.55078125 1157.91259765625 271.0862426757812 1156.029541015625 270.9345092773438 C 1158.81884765625 269.22607421875 1162.7607421875 268.3080444335938 1165.248291015625 267.3668212890625 C 1169.840576171875 265.6464233398438 1179.920654296875 263.728515625 1179.920654296875 253.1755218505859 C 1179.920654296875 248.1666412353516 1176.908935546875 245.0049896240234 1172.108154296875 245.0049896240234 L 1132.533203125 245.0049896240234 C 1127.731689453125 245.0049896240234 1124.720947265625 248.1666412353516 1124.720947265625 253.1755218505859 C 1124.720947265625 263.728515625 1134.800048828125 265.6464233398438 1139.392333984375 267.3668212890625 C 1141.880615234375 268.3080444335938 1145.822021484375 269.22607421875 1148.612060546875 270.9345092773438 C 1146.716796875 271.0862426757812 1144.05419921875 271.55078125 1141.217529296875 271.8990478515625 C 1138.892333984375 270.0630493164062 1136.322998046875 268.52880859375 1133.498291015625 268.52880859375 C 1131.254638671875 268.52880859375 1129.591552734375 269.4700927734375 1128.4990234375 270.8880004882812 L 1128.487060546875 270.8880004882812 C 1127.394775390625 272.0619506835938 1126.906494140625 273.503173828125 1126.906494140625 275.2814331054688 C 1126.906494140625 275.3632202148438 1126.906494140625 275.4555053710938 1126.91796875 275.537353515625 C 1126.906494140625 275.63037109375 1126.906494140625 275.7114868164062 1126.906494140625 275.8045654296875 C 1126.906494140625 277.5828247070312 1127.394775390625 279.0240478515625 1128.487060546875 280.1859130859375 C 1129.58056640625 281.6038818359375 1131.254638671875 282.5458984375 1133.498291015625 282.5458984375 C 1136.322998046875 282.5458984375 1138.881103515625 281.0115966796875 1141.20654296875 279.1868286132812 C 1144.05419921875 279.5352172851562 1146.739990234375 280.0005493164062 1148.635498046875 280.1394653320312 C 1145.84521484375 281.85986328125 1141.891845703125 282.7778930664062 1139.392333984375 283.7199096679688 C 1134.800048828125 285.4283447265625 1124.720947265625 287.3453979492188 1124.720947265625 297.910400390625 C 1124.720947265625 302.9201049804688 1127.731689453125 306.0696411132812 1132.533203125 306.0696411132812 L 1172.108154296875 306.0696411132812 M 1154.273193359375 295.7831420898438 C 1153.541259765625 295.7831420898438 1152.890380859375 295.8529663085938 1152.3203125 295.9692993164062 C 1151.750244140625 295.8529663085938 1151.099365234375 295.7831420898438 1150.367431640625 295.7831420898438 C 1142.205810546875 295.7831420898438 1136.451416015625 303.7449951171875 1133.01025390625 303.7449951171875 C 1131.84716796875 303.7449951171875 1131.161376953125 302.7804565429688 1131.579833984375 301.6177368164062 C 1132.463623046875 299.1428833007812 1138.845703125 292.9014892578125 1142.554931640625 289.8216552734375 C 1144.65869140625 288.0780029296875 1149.413818359375 284.4397583007812 1152.3203125 280.7323608398438 C 1155.226806640625 284.4397583007812 1159.98193359375 288.0780029296875 1162.08642578125 289.8216552734375 C 1165.795166015625 292.9014892578125 1172.177001953125 299.1428833007812 1173.060791015625 301.6177368164062 C 1173.47998046875 302.7804565429688 1172.79345703125 303.7449951171875 1171.619384765625 303.7449951171875 C 1168.189453125 303.7449951171875 1162.434814453125 295.7831420898438 1154.273193359375 295.7831420898438 M 1154.54150390625 273.15478515625 C 1155.94775390625 273.15478515625 1157.459228515625 274.17724609375 1159.12158203125 275.548583984375 C 1157.459228515625 276.90869140625 1155.94775390625 277.931884765625 1154.54150390625 277.931884765625 C 1154.4130859375 277.931884765625 1154.296630859375 277.9198608398438 1154.1923828125 277.9085693359375 C 1154.62255859375 277.1181030273438 1154.761962890625 276.2692260742188 1154.761962890625 275.6649780273438 C 1154.761962890625 275.63037109375 1154.761962890625 275.5839233398438 1154.750244140625 275.548583984375 C 1154.761962890625 275.5020751953125 1154.761962890625 275.467529296875 1154.761962890625 275.4210205078125 C 1154.761962890625 274.8167114257812 1154.6337890625 273.9797973632812 1154.203369140625 273.1781616210938 C 1154.30859375 273.1661376953125 1154.425048828125 273.15478515625 1154.54150390625 273.15478515625 M 1150.10009765625 273.15478515625 C 1150.21630859375 273.15478515625 1150.33203125 273.1661376953125 1150.437255859375 273.1781616210938 C 1150.007080078125 273.9797973632812 1149.87939453125 274.8167114257812 1149.87939453125 275.4210205078125 C 1149.87939453125 275.467529296875 1149.87939453125 275.5020751953125 1149.890625 275.548583984375 C 1149.87939453125 275.5839233398438 1149.87939453125 275.63037109375 1149.87939453125 275.6649780273438 C 1149.87939453125 276.2692260742188 1150.018310546875 277.1181030273438 1150.448486328125 277.9085693359375 C 1150.34423828125 277.9198608398438 1150.22802734375 277.931884765625 1150.10009765625 277.931884765625 C 1148.693115234375 277.931884765625 1147.181640625 276.90869140625 1145.519287109375 275.548583984375 C 1147.181640625 274.17724609375 1148.693115234375 273.15478515625 1150.10009765625 273.15478515625 M 1133.01025390625 247.3409271240234 C 1136.451416015625 247.3409271240234 1142.205810546875 255.2907867431641 1150.367431640625 255.2907867431641 C 1151.099365234375 255.2907867431641 1151.750244140625 255.2209320068359 1152.3203125 255.1045989990234 C 1152.890380859375 255.2209320068359 1153.541259765625 255.2907867431641 1154.273193359375 255.2907867431641 C 1162.434814453125 255.2907867431641 1168.189453125 247.3409271240234 1171.619384765625 247.3409271240234 C 1172.79345703125 247.3409271240234 1173.47998046875 248.3062286376953 1173.060791015625 249.4681854248047 C 1172.177001953125 251.9317474365234 1165.795166015625 258.1731567382812 1162.08642578125 261.2650146484375 C 1159.98193359375 263.0079345703125 1155.226806640625 266.657470703125 1152.3203125 270.353515625 C 1149.413818359375 266.657470703125 1144.65869140625 263.0079345703125 1142.554931640625 261.2650146484375 C 1138.845703125 258.1731567382812 1132.463623046875 251.9317474365234 1131.579833984375 249.4681854248047 C 1131.161376953125 248.3062286376953 1131.84716796875 247.3409271240234 1133.01025390625 247.3409271240234 M 1172.108154296875 307.0696411132812 L 1132.533203125 307.0696411132812 C 1127.179931640625 307.0696411132812 1123.720947265625 303.4744262695312 1123.720947265625 297.910400390625 C 1123.720947265625 295.5688781738281 1124.196533203125 293.4578247070312 1125.134643554688 291.6358642578125 C 1125.947265625 290.0573120117188 1127.129760742188 288.655029296875 1128.649169921875 287.4679870605469 C 1131.370483398438 285.3418579101562 1134.628295898438 284.2645568847656 1137.245849609375 283.39892578125 C 1137.900146484375 283.1825561523438 1138.518188476562 282.9781799316406 1139.043701171875 282.7826843261719 C 1139.798095703125 282.4983520507812 1140.673950195312 282.218505859375 1141.601440429688 281.9222412109375 C 1142.731201171875 281.561279296875 1143.939331054688 281.1753845214844 1145.10107421875 280.7266540527344 C 1144.845458984375 280.6907958984375 1144.58642578125 280.6540832519531 1144.324951171875 280.6170349121094 C 1143.408203125 280.487060546875 1142.463989257812 280.3532409667969 1141.493041992188 280.2302551269531 C 1139.410522460938 281.8269348144531 1136.67138671875 283.5458984375 1133.498291015625 283.5458984375 C 1132.265502929688 283.5458984375 1131.128295898438 283.2929992675781 1130.118530273438 282.7942504882812 C 1129.1865234375 282.3339233398438 1128.381469726562 281.6748962402344 1127.72509765625 280.8350830078125 C 1126.50146484375 279.5155029296875 1125.906494140625 277.869384765625 1125.906494140625 275.8045654296875 C 1125.906494140625 275.7255249023438 1125.906494140625 275.6389770507812 1125.913452148438 275.5396728515625 C 1125.906494140625 275.4416198730469 1125.906494140625 275.3524780273438 1125.906494140625 275.2814331054688 C 1125.906494140625 273.2035522460938 1126.511108398438 271.5436401367188 1127.755004882812 270.2068176269531 L 1127.804931640625 270.153076171875 C 1129.186279296875 268.4355773925781 1131.1513671875 267.52880859375 1133.498291015625 267.52880859375 C 1134.966796875 267.52880859375 1136.431274414062 267.8866577148438 1137.9755859375 268.6227416992188 C 1139.079223632812 269.1488952636719 1140.236938476562 269.8809814453125 1141.505004882812 270.8553466796875 C 1142.513305664062 270.7270812988281 1143.490234375 270.5871887207031 1144.438598632812 270.4513854980469 C 1144.657104492188 270.4200744628906 1144.873779296875 270.3890380859375 1145.088256835938 270.3585510253906 C 1143.934814453125 269.9136962890625 1142.736450195312 269.5301208496094 1141.615600585938 269.1713562011719 C 1140.68212890625 268.87255859375 1139.800415039062 268.59033203125 1139.03857421875 268.3021545410156 C 1138.510498046875 268.1043395996094 1137.885009765625 267.8964538574219 1137.222778320312 267.6763916015625 C 1134.607543945312 266.8072509765625 1131.352783203125 265.7256164550781 1128.637329101562 263.6001281738281 C 1127.121337890625 262.41357421875 1125.941650390625 261.0128479003906 1125.130981445312 259.4368591308594 C 1124.1953125 257.6180725097656 1123.720947265625 255.5114593505859 1123.720947265625 253.1755218505859 C 1123.720947265625 247.6046447753906 1127.179931640625 244.0049896240234 1132.533203125 244.0049896240234 L 1172.108154296875 244.0049896240234 C 1177.461547851562 244.0049896240234 1180.920654296875 247.6046447753906 1180.920654296875 253.1755218505859 C 1180.920654296875 255.5114288330078 1180.4462890625 257.6180114746094 1179.510620117188 259.4367980957031 C 1178.699829101562 261.0127868652344 1177.52001953125 262.4134826660156 1176.004028320312 263.6000671386719 C 1173.288330078125 265.7254943847656 1170.033447265625 266.8071594238281 1167.418090820312 267.6763000488281 C 1166.755737304688 267.8964233398438 1166.130126953125 268.1043090820312 1165.59912109375 268.3032531738281 C 1164.840209960938 268.5904235839844 1163.958251953125 268.8727416992188 1163.0244140625 269.1716613769531 C 1161.903198242188 269.5306091308594 1160.704345703125 269.9143371582031 1159.550537109375 270.3594970703125 C 1159.750854492188 270.3879699707031 1159.953247070312 270.4169311523438 1160.157104492188 270.4461059570312 C 1161.119018554688 270.583740234375 1162.109985351562 270.7255554199219 1163.135498046875 270.8554992675781 C 1164.403686523438 269.8810424804688 1165.5615234375 269.1488952636719 1166.665283203125 268.6227416992188 C 1168.20947265625 267.8866577148438 1169.673950195312 267.52880859375 1171.142333984375 267.52880859375 C 1173.490478515625 267.52880859375 1175.4560546875 268.4360961914062 1176.837524414062 270.1550598144531 L 1176.885620117188 270.2067260742188 C 1178.130126953125 271.5440063476562 1178.735107421875 273.2039489746094 1178.735107421875 275.2814331054688 C 1178.735107421875 275.3525390625 1178.735107421875 275.4413452148438 1178.727783203125 275.5397033691406 C 1178.735107421875 275.6390380859375 1178.735107421875 275.7254943847656 1178.735107421875 275.8045654296875 C 1178.735107421875 277.8689880371094 1178.139770507812 279.5151062011719 1176.91552734375 280.8351440429688 C 1175.529907226562 282.6087341308594 1173.53466796875 283.5458984375 1171.142333984375 283.5458984375 C 1167.96875 283.5458984375 1165.22998046875 281.8268432617188 1163.147583007812 280.2300720214844 C 1162.162109375 280.3544921875 1161.207275390625 280.4898986816406 1160.280151367188 280.6213684082031 C 1160.030517578125 280.6567687988281 1159.783203125 280.6918640136719 1159.538818359375 280.7261657714844 C 1160.700927734375 281.1752014160156 1161.909423828125 281.561279296875 1163.039794921875 281.9223937988281 C 1163.966918945312 282.2186279296875 1164.8427734375 282.4984130859375 1165.600952148438 282.7841491699219 C 1166.12255859375 282.9781799316406 1166.740600585938 283.1825866699219 1167.39501953125 283.3989868164062 C 1170.012817382812 284.2646179199219 1173.270629882812 285.3419189453125 1175.9921875 287.4680480957031 C 1177.511596679688 288.6551208496094 1178.694091796875 290.057373046875 1179.506958007812 291.6358947753906 C 1180.444946289062 293.4578857421875 1180.920654296875 295.5689086914062 1180.920654296875 297.910400390625 C 1180.920654296875 303.4744262695312 1177.461547851562 307.0696411132812 1172.108154296875 307.0696411132812 Z M 1154.273193359375 294.7831420898438 C 1156.632568359375 294.7831420898438 1158.992065429688 295.3914184570312 1161.48681640625 296.6427307128906 C 1163.593505859375 297.6994323730469 1165.442138671875 299.0320434570312 1167.073364257812 300.207763671875 C 1168.883422851562 301.5125732421875 1170.59326171875 302.7449951171875 1171.619384765625 302.7449951171875 C 1171.85009765625 302.7449951171875 1172.025024414062 302.6768493652344 1172.111938476562 302.5531005859375 C 1172.205688476562 302.4197387695312 1172.208618164062 302.2024536132812 1172.1201171875 301.9569091796875 C 1171.958129882812 301.5035095214844 1171.226196289062 300.0838012695312 1167.912353515625 296.6399230957031 C 1165.902587890625 294.5513000488281 1163.425415039062 292.2334899902344 1161.447509765625 290.5909729003906 C 1161.156982421875 290.3501892089844 1160.818115234375 290.0752868652344 1160.425903320312 289.7569580078125 C 1158.290649414062 288.0243835449219 1154.857177734375 285.2384033203125 1152.3203125 282.3032836914062 C 1149.784790039062 285.2367553710938 1146.353149414062 288.0217895507812 1144.219116210938 289.7537841796875 C 1143.825439453125 290.0733337402344 1143.4853515625 290.3493041992188 1143.193115234375 290.5915832519531 C 1141.2158203125 292.2333679199219 1138.738403320312 294.5511779785156 1136.728393554688 296.6399536132812 C 1133.414428710938 300.0837707519531 1132.682495117188 301.5035095214844 1132.521606445312 301.9540405273438 C 1132.431884765625 302.203125 1132.435180664062 302.4216918945312 1132.529541015625 302.5560607910156 C 1132.615234375 302.6778869628906 1132.785888671875 302.7449951171875 1133.01025390625 302.7449951171875 C 1134.042358398438 302.7449951171875 1135.756591796875 301.5103149414062 1137.571411132812 300.203125 C 1139.202758789062 299.028076171875 1141.051879882812 297.6962585449219 1143.15771484375 296.6406555175781 C 1145.651245117188 295.3907470703125 1148.009521484375 294.7831420898438 1150.367431640625 294.7831420898438 C 1151.05029296875 294.7831420898438 1151.706176757812 294.8395690917969 1152.3203125 294.9509887695312 C 1152.934448242188 294.8395690917969 1153.59033203125 294.7831420898438 1154.273193359375 294.7831420898438 Z M 1147.135131835938 275.5455627441406 C 1147.751342773438 276.0028381347656 1148.379516601562 276.4093933105469 1148.971557617188 276.6620788574219 C 1148.9111328125 276.3285827636719 1148.87939453125 275.9924621582031 1148.87939453125 275.6649780273438 C 1148.87939453125 275.6359252929688 1148.87939453125 275.594970703125 1148.882568359375 275.5453491210938 C 1148.87939453125 275.4952087402344 1148.87939453125 275.4533996582031 1148.87939453125 275.4210205078125 C 1148.87939453125 275.179443359375 1148.896728515625 274.8326416015625 1148.967895507812 274.4255065917969 C 1148.37548828125 274.6789855957031 1147.7490234375 275.0867309570312 1147.135131835938 275.5455627441406 Z M 1155.758666992188 275.5469665527344 C 1155.76123046875 275.588623046875 1155.761962890625 275.6279907226562 1155.761962890625 275.6649780273438 C 1155.761962890625 275.9923706054688 1155.730224609375 276.3285217285156 1155.669677734375 276.6620483398438 C 1156.261474609375 276.4093933105469 1156.8896484375 276.0028381347656 1157.505737304688 275.5455627441406 C 1156.891967773438 275.0867309570312 1156.265502929688 274.6790161132812 1155.67333984375 274.4255065917969 C 1155.744506835938 274.8327026367188 1155.761962890625 275.1795043945312 1155.761962890625 275.4210205078125 C 1155.761962890625 275.453857421875 1155.761962890625 275.4962158203125 1155.758666992188 275.5469665527344 Z M 1133.01025390625 248.3409271240234 C 1132.786010742188 248.3409271240234 1132.615356445312 248.4080963134766 1132.529663085938 248.5300598144531 C 1132.435180664062 248.6644897460938 1132.431884765625 248.8829193115234 1132.520629882812 249.1293487548828 C 1132.681884765625 249.5785980224609 1133.41357421875 250.9927368164062 1136.728393554688 254.4376068115234 C 1138.734130859375 256.5220336914062 1141.212036132812 258.8438110351562 1143.195190429688 260.4968872070312 C 1143.478759765625 260.7317810058594 1143.809814453125 261.0007019042969 1144.193115234375 261.3120727539062 C 1146.333740234375 263.0508728027344 1149.776245117188 265.8472290039062 1152.3203125 268.7848815917969 C 1154.86572265625 265.8457641601562 1158.310424804688 263.048095703125 1160.451904296875 261.308837890625 C 1160.833862304688 260.9986877441406 1161.16357421875 260.7308654785156 1161.448608398438 260.4948425292969 C 1163.42919921875 258.8436889648438 1165.906860351562 256.5219116210938 1167.912353515625 254.4376373291016 C 1171.22705078125 250.9927062988281 1171.958740234375 249.5785980224609 1172.119506835938 249.1305084228516 C 1172.208618164062 248.8836059570312 1172.20556640625 248.6664276123047 1172.111938476562 248.5330047607422 C 1172.02490234375 248.4091491699219 1171.849975585938 248.3409271240234 1171.619384765625 248.3409271240234 C 1170.5927734375 248.3409271240234 1168.882934570312 249.5715789794922 1167.07275390625 250.8744659423828 C 1165.441650390625 252.0484313964844 1163.592895507812 253.3790283203125 1161.486328125 254.4340972900391 C 1158.99169921875 255.6834564208984 1156.63232421875 256.290771484375 1154.273193359375 256.290771484375 C 1153.590454101562 256.290771484375 1152.9345703125 256.2343444824219 1152.3203125 256.1229248046875 C 1151.7060546875 256.2343444824219 1151.050170898438 256.290771484375 1150.367431640625 256.290771484375 C 1148.009765625 256.290771484375 1145.651611328125 255.6841278076172 1143.158203125 254.4361724853516 C 1141.052490234375 253.3821868896484 1139.203369140625 252.0523834228516 1137.572021484375 250.8791198730469 C 1135.757080078125 249.5738372802734 1134.042724609375 248.3409271240234 1133.01025390625 248.3409271240234 Z" stroke="none" fill="#36495d"/></g></svg>