<svg xmlns="http://www.w3.org/2000/svg" width="57.2" height="63.065" viewBox="0 0 57.2 63.065"><g transform="translate(-1123.721 -244.005)" fill="rgba(16,39,81,0.4)" opacity="0.401"><path d="M 1172.108154296875 306.5696411132812 L 1132.533203125 306.5696411132812 C 1130.038208007812 306.5696411132812 1127.93994140625 305.7551879882812 1126.46533203125 304.2143859863281 C 1124.9970703125 302.6802062988281 1124.220947265625 300.5003356933594 1124.220947265625 297.910400390625 C 1124.220947265625 295.6492919921875 1124.677856445312 293.615234375 1125.5791015625 291.8647155761719 C 1126.358520507812 290.3509216308594 1127.494995117188 289.0042114257812 1128.95703125 287.8619689941406 C 1131.609985351562 285.789306640625 1134.821899414062 284.7271118164062 1137.40283203125 283.8736267089844 C 1138.061645507812 283.65576171875 1138.683837890625 283.4500122070312 1139.218017578125 283.2512817382812 C 1139.96240234375 282.9707336425781 1140.832397460938 282.6927795410156 1141.753540039062 282.3985290527344 C 1143.450927734375 281.8562927246094 1145.32275390625 281.25830078125 1146.969848632812 280.4716186523438 C 1146.169311523438 280.3734436035156 1145.296630859375 280.2497253417969 1144.395141601562 280.1219482421875 C 1143.412231445312 279.9826354980469 1142.397827148438 279.8388671875 1141.350830078125 279.7084350585938 C 1139.312377929688 281.2902221679688 1136.60498046875 283.0458984375 1133.498291015625 283.0458984375 C 1131.258422851562 283.0458984375 1129.394409179688 282.1693420410156 1128.106079101562 280.5105285644531 C 1126.96240234375 279.2849731445312 1126.406494140625 277.745361328125 1126.406494140625 275.8045654296875 C 1126.406494140625 275.7214660644531 1126.406494140625 275.6360168457031 1126.4150390625 275.539306640625 C 1126.406494140625 275.4463195800781 1126.406494140625 275.3564758300781 1126.406494140625 275.2814331054688 C 1126.406494140625 273.3358764648438 1126.96728515625 271.787353515625 1128.120971679688 270.5474243164062 L 1128.18359375 270.4800720214844 C 1129.4677734375 268.8757629394531 1131.302490234375 268.02880859375 1133.498291015625 268.02880859375 C 1136.625610351562 268.02880859375 1139.32958984375 269.7901000976562 1141.362670898438 271.3772583007812 C 1142.447875976562 271.2415466308594 1143.494873046875 271.0916137695312 1144.509521484375 270.9463195800781 C 1145.362915039062 270.8240966796875 1146.189697265625 270.7057189941406 1146.952026367188 270.6095581054688 C 1145.313232421875 269.8299255371094 1143.4541015625 269.2348327636719 1141.76806640625 268.6951599121094 C 1140.840942382812 268.3984069824219 1139.965209960938 268.1180725097656 1139.215454101562 267.83447265625 C 1138.677124023438 267.6328125 1138.047241210938 267.4235229492188 1137.380493164062 267.201904296875 C 1134.801879882812 266.3449401855469 1131.5927734375 265.2784423828125 1128.945434570312 263.2063903808594 C 1127.48681640625 262.0646667480469 1126.35302734375 260.7194519042969 1125.575561523438 259.2081298828125 C 1124.6767578125 257.4607849121094 1124.220947265625 255.4311218261719 1124.220947265625 253.1755218505859 C 1124.220947265625 250.5852661132812 1124.996948242188 248.4036865234375 1126.464965820312 246.8665924072266 C 1127.9404296875 245.3216247558594 1130.038818359375 244.5049896240234 1132.533203125 244.5049896240234 L 1172.108154296875 244.5049896240234 C 1174.602294921875 244.5049896240234 1176.700561523438 245.3216094970703 1178.17626953125 246.8665771484375 C 1179.64453125 248.4037780761719 1180.420654296875 250.5853729248047 1180.420654296875 253.1755218505859 C 1180.420654296875 255.4310760498047 1179.96484375 257.4607238769531 1179.06591796875 259.2080688476562 C 1178.288452148438 260.7193603515625 1177.154663085938 262.0645751953125 1175.69580078125 263.206298828125 C 1173.048461914062 265.2783508300781 1169.839111328125 266.3448486328125 1167.260375976562 267.2018127441406 C 1166.593505859375 267.4234619140625 1165.963500976562 267.6327819824219 1165.423706054688 267.8350524902344 C 1164.675415039062 268.1181640625 1163.799438476562 268.3985900878906 1162.8720703125 268.6954650878906 C 1161.18603515625 269.2351684570312 1159.326904296875 269.8302612304688 1157.688354492188 270.6099548339844 C 1158.420288085938 270.7026672363281 1159.220458984375 270.8171691894531 1160.086303710938 270.9410705566406 C 1161.114135742188 271.0881652832031 1162.175048828125 271.2399597167969 1163.277954101562 271.3773498535156 C 1165.311157226562 269.7901000976562 1168.015258789062 268.02880859375 1171.142333984375 268.02880859375 C 1173.339233398438 268.02880859375 1175.174682617188 268.87646484375 1176.458862304688 270.4821472167969 L 1176.51953125 270.54736328125 C 1177.673950195312 271.7877807617188 1178.235107421875 273.3363037109375 1178.235107421875 275.2814331054688 C 1178.235107421875 275.3564147949219 1178.235107421875 275.4459838867188 1178.22607421875 275.5393981933594 C 1178.235107421875 275.63623046875 1178.235107421875 275.7215576171875 1178.235107421875 275.8045654296875 C 1178.235107421875 277.7448120117188 1177.6787109375 279.2845458984375 1176.534545898438 280.5105285644531 C 1175.24658203125 282.1693420410156 1173.382568359375 283.0458984375 1171.142333984375 283.0458984375 C 1168.035278320312 283.0458984375 1165.328247070312 281.2902221679688 1163.289916992188 279.7083740234375 C 1162.227905273438 279.8401489257812 1161.203002929688 279.9855041503906 1160.2099609375 280.1263122558594 C 1159.321533203125 280.2523193359375 1158.461303710938 280.3742980957031 1157.671020507812 280.471435546875 C 1159.318115234375 281.2583312988281 1161.190063476562 281.8563537597656 1162.887573242188 282.398681640625 C 1163.808471679688 282.6929016113281 1164.678344726562 282.9707946777344 1165.424560546875 283.2520446777344 C 1165.956787109375 283.4500122070312 1166.579223632812 283.6558227539062 1167.238037109375 283.8737182617188 C 1169.819091796875 284.7272033691406 1173.03125 285.7893981933594 1175.684326171875 287.862060546875 C 1177.146362304688 289.0043029785156 1178.282958984375 290.3510131835938 1179.062377929688 291.8648071289062 C 1179.963623046875 293.6152648925781 1180.420654296875 295.6493225097656 1180.420654296875 297.910400390625 C 1180.420654296875 300.500244140625 1179.644409179688 302.6801147460938 1178.175903320312 304.2143859863281 C 1176.701049804688 305.7552185058594 1174.602905273438 306.5696411132812 1172.108154296875 306.5696411132812 Z M 1154.273193359375 295.2831420898438 C 1156.552856445312 295.2831420898438 1158.839111328125 295.8740539550781 1161.2626953125 297.0896606445312 C 1163.33349609375 298.12841796875 1165.1650390625 299.4486083984375 1166.780883789062 300.6133728027344 C 1168.739990234375 302.0254821777344 1170.431762695312 303.2449951171875 1171.619384765625 303.2449951171875 C 1172.017578125 303.2449951171875 1172.337890625 303.1013488769531 1172.521118164062 302.8405151367188 C 1172.71240234375 302.568115234375 1172.737060546875 302.194091796875 1172.590454101562 301.7873229980469 C 1171.786743164062 299.5366516113281 1165.643310546875 293.4253540039062 1161.766967773438 290.206298828125 C 1161.473999023438 289.9635314941406 1161.13427734375 289.6878967285156 1160.740966796875 289.3687133789062 C 1158.51025390625 287.5586242675781 1154.8525390625 284.5906372070312 1152.3203125 281.5291748046875 C 1149.789428710938 284.5888671875 1146.133544921875 287.5560913085938 1143.904052734375 289.3655700683594 C 1143.50927734375 289.6859741210938 1143.168334960938 289.9627075195312 1142.8740234375 290.2066040039062 C 1138.997802734375 293.4251098632812 1132.85400390625 299.5362854003906 1132.050659179688 301.785888671875 C 1131.903442382812 302.1950378417969 1131.928466796875 302.5702514648438 1132.120483398438 302.8435668945312 C 1132.302490234375 303.1024475097656 1132.618408203125 303.2449951171875 1133.01025390625 303.2449951171875 C 1134.203735351562 303.2449951171875 1135.899780273438 302.0233764648438 1137.863647460938 300.6088256835938 C 1141.157836914062 298.236083984375 1145.257690429688 295.2831420898438 1150.367431640625 295.2831420898438 C 1151.053833007812 295.2831420898438 1151.710205078125 295.3424987792969 1152.3203125 295.4595947265625 C 1152.930419921875 295.3424987792969 1153.586791992188 295.2831420898438 1154.273193359375 295.2831420898438 Z M 1155.257080078125 275.5459289550781 C 1155.261962890625 275.5945739746094 1155.261962890625 275.6361083984375 1155.261962890625 275.6649780273438 C 1155.261962890625 275.9665222167969 1155.226806640625 276.6354675292969 1154.962524414062 277.3965759277344 C 1156.020141601562 277.2246398925781 1157.18603515625 276.4468994140625 1158.326049804688 275.5470275878906 C 1157.192504882812 274.645263671875 1156.03125 273.8656311035156 1154.970581054688 273.691162109375 C 1155.217163085938 274.4093017578125 1155.261962890625 275.0505676269531 1155.261962890625 275.4210205078125 C 1155.261962890625 275.4553527832031 1155.261962890625 275.4968872070312 1155.257080078125 275.5459289550781 Z M 1146.314819335938 275.5470275878906 C 1147.454711914062 276.44677734375 1148.62060546875 277.2243957519531 1149.678466796875 277.396484375 C 1149.41455078125 276.6358337402344 1149.37939453125 275.9666442871094 1149.37939453125 275.6649780273438 C 1149.37939453125 275.63623046875 1149.37939453125 275.5946044921875 1149.38427734375 275.5459289550781 C 1149.37939453125 275.496826171875 1149.37939453125 275.4552917480469 1149.37939453125 275.4210205078125 C 1149.37939453125 275.0504455566406 1149.424072265625 274.4090576171875 1149.670288085938 273.6912536621094 C 1148.609375 273.8658752441406 1147.4482421875 274.6454162597656 1146.314819335938 275.5470275878906 Z M 1133.01025390625 247.8409271240234 C 1132.618530273438 247.8409271240234 1132.302612304688 247.9835662841797 1132.12060546875 248.2425689697266 C 1131.928466796875 248.5160064697266 1131.903442382812 248.89111328125 1132.05029296875 249.2987670898438 C 1132.418579101562 250.3253479003906 1133.951904296875 252.2732849121094 1136.3681640625 254.7843017578125 C 1138.385620117188 256.8809204101562 1140.87890625 259.217041015625 1142.875122070312 260.8809509277344 C 1143.16162109375 261.1183471679688 1143.493530273438 261.3879699707031 1143.8779296875 261.7001647949219 C 1146.113891601562 263.5164794921875 1149.780639648438 266.4950866699219 1152.3203125 269.5580139160156 C 1154.861328125 266.4932861328125 1158.529907226562 263.5138854980469 1160.767211914062 261.6969604492188 C 1161.150024414062 261.3860168457031 1161.480712890625 261.1174926757812 1161.767456054688 260.8799438476562 C 1165.7392578125 257.5688171386719 1171.778930664062 251.5604858398438 1172.590209960938 249.2993469238281 C 1172.737060546875 248.8920593261719 1172.71240234375 248.5181427001953 1172.52099609375 248.2456359863281 C 1172.337768554688 247.9846649169922 1172.017578125 247.8409271240234 1171.619384765625 247.8409271240234 C 1170.431640625 247.8409271240234 1168.73974609375 249.0586547851562 1166.780639648438 250.4686431884766 C 1165.164794921875 251.6316680908203 1163.333251953125 252.9498596191406 1161.262329101562 253.9870300292969 C 1158.838989257812 255.2007751464844 1156.552734375 255.7907867431641 1154.273193359375 255.7907867431641 C 1153.5869140625 255.7907867431641 1152.930419921875 255.7314300537109 1152.3203125 255.6142883300781 C 1151.710205078125 255.7314300537109 1151.0537109375 255.7907867431641 1150.367431640625 255.7907867431641 C 1145.2578125 255.7907867431641 1141.158081054688 252.8423156738281 1137.863891601562 250.4731903076172 C 1135.900024414062 249.0607604980469 1134.203857421875 247.8409271240234 1133.01025390625 247.8409271240234 Z" stroke="none"/><path d="M 1172.108154296875 306.0696411132812 C 1176.908935546875 306.0696411132812 1179.920654296875 302.9201049804688 1179.920654296875 297.910400390625 C 1179.920654296875 287.3453979492188 1169.840576171875 285.4283447265625 1165.248291015625 283.7199096679688 C 1162.748779296875 282.7778930664062 1158.795654296875 281.85986328125 1156.006103515625 280.1394653320312 C 1157.900634765625 280.0005493164062 1160.5751953125 279.5352172851562 1163.434326171875 279.1868286132812 C 1165.759521484375 281.0115966796875 1168.31787109375 282.5458984375 1171.142333984375 282.5458984375 C 1173.386962890625 282.5458984375 1175.060302734375 281.6038818359375 1176.153564453125 280.1859130859375 C 1177.24609375 279.0240478515625 1177.735107421875 277.5828247070312 1177.735107421875 275.8045654296875 C 1177.735107421875 275.7114868164062 1177.735107421875 275.63037109375 1177.72265625 275.537353515625 C 1177.735107421875 275.4555053710938 1177.735107421875 275.3632202148438 1177.735107421875 275.2814331054688 C 1177.735107421875 273.503173828125 1177.24609375 272.0619506835938 1176.153564453125 270.8880004882812 L 1176.141845703125 270.8880004882812 C 1175.04931640625 269.4700927734375 1173.386962890625 268.52880859375 1171.142333984375 268.52880859375 C 1168.31787109375 268.52880859375 1165.74853515625 270.0630493164062 1163.423095703125 271.8990478515625 C 1160.5751953125 271.55078125 1157.91259765625 271.0862426757812 1156.029541015625 270.9345092773438 C 1158.81884765625 269.22607421875 1162.7607421875 268.3080444335938 1165.248291015625 267.3668212890625 C 1169.840576171875 265.6464233398438 1179.920654296875 263.728515625 1179.920654296875 253.1755218505859 C 1179.920654296875 248.1666412353516 1176.908935546875 245.0049896240234 1172.108154296875 245.0049896240234 L 1132.533203125 245.0049896240234 C 1127.731689453125 245.0049896240234 1124.720947265625 248.1666412353516 1124.720947265625 253.1755218505859 C 1124.720947265625 263.728515625 1134.800048828125 265.6464233398438 1139.392333984375 267.3668212890625 C 1141.880615234375 268.3080444335938 1145.822021484375 269.22607421875 1148.612060546875 270.9345092773438 C 1146.716796875 271.0862426757812 1144.05419921875 271.55078125 1141.217529296875 271.8990478515625 C 1138.892333984375 270.0630493164062 1136.322998046875 268.52880859375 1133.498291015625 268.52880859375 C 1131.254638671875 268.52880859375 1129.591552734375 269.4700927734375 1128.4990234375 270.8880004882812 L 1128.487060546875 270.8880004882812 C 1127.394775390625 272.0619506835938 1126.906494140625 273.503173828125 1126.906494140625 275.2814331054688 C 1126.906494140625 275.3632202148438 1126.906494140625 275.4555053710938 1126.91796875 275.537353515625 C 1126.906494140625 275.63037109375 1126.906494140625 275.7114868164062 1126.906494140625 275.8045654296875 C 1126.906494140625 277.5828247070312 1127.394775390625 279.0240478515625 1128.487060546875 280.1859130859375 C 1129.58056640625 281.6038818359375 1131.254638671875 282.5458984375 1133.498291015625 282.5458984375 C 1136.322998046875 282.5458984375 1138.881103515625 281.0115966796875 1141.20654296875 279.1868286132812 C 1144.05419921875 279.5352172851562 1146.739990234375 280.0005493164062 1148.635498046875 280.1394653320312 C 1145.84521484375 281.85986328125 1141.891845703125 282.7778930664062 1139.392333984375 283.7199096679688 C 1134.800048828125 285.4283447265625 1124.720947265625 287.3453979492188 1124.720947265625 297.910400390625 C 1124.720947265625 302.9201049804688 1127.731689453125 306.0696411132812 1132.533203125 306.0696411132812 L 1172.108154296875 306.0696411132812 M 1154.273193359375 295.7831420898438 C 1153.541259765625 295.7831420898438 1152.890380859375 295.8529663085938 1152.3203125 295.9692993164062 C 1151.750244140625 295.8529663085938 1151.099365234375 295.7831420898438 1150.367431640625 295.7831420898438 C 1142.205810546875 295.7831420898438 1136.451416015625 303.7449951171875 1133.01025390625 303.7449951171875 C 1131.84716796875 303.7449951171875 1131.161376953125 302.7804565429688 1131.579833984375 301.6177368164062 C 1132.463623046875 299.1428833007812 1138.845703125 292.9014892578125 1142.554931640625 289.8216552734375 C 1144.65869140625 288.0780029296875 1149.413818359375 284.4397583007812 1152.3203125 280.7323608398438 C 1155.226806640625 284.4397583007812 1159.98193359375 288.0780029296875 1162.08642578125 289.8216552734375 C 1165.795166015625 292.9014892578125 1172.177001953125 299.1428833007812 1173.060791015625 301.6177368164062 C 1173.47998046875 302.7804565429688 1172.79345703125 303.7449951171875 1171.619384765625 303.7449951171875 C 1168.189453125 303.7449951171875 1162.434814453125 295.7831420898438 1154.273193359375 295.7831420898438 M 1154.54150390625 273.15478515625 C 1155.94775390625 273.15478515625 1157.459228515625 274.17724609375 1159.12158203125 275.548583984375 C 1157.459228515625 276.90869140625 1155.94775390625 277.931884765625 1154.54150390625 277.931884765625 C 1154.4130859375 277.931884765625 1154.296630859375 277.9198608398438 1154.1923828125 277.9085693359375 C 1154.62255859375 277.1181030273438 1154.761962890625 276.2692260742188 1154.761962890625 275.6649780273438 C 1154.761962890625 275.63037109375 1154.761962890625 275.5839233398438 1154.750244140625 275.548583984375 C 1154.761962890625 275.5020751953125 1154.761962890625 275.467529296875 1154.761962890625 275.4210205078125 C 1154.761962890625 274.8167114257812 1154.6337890625 273.9797973632812 1154.203369140625 273.1781616210938 C 1154.30859375 273.1661376953125 1154.425048828125 273.15478515625 1154.54150390625 273.15478515625 M 1150.10009765625 273.15478515625 C 1150.21630859375 273.15478515625 1150.33203125 273.1661376953125 1150.437255859375 273.1781616210938 C 1150.007080078125 273.9797973632812 1149.87939453125 274.8167114257812 1149.87939453125 275.4210205078125 C 1149.87939453125 275.467529296875 1149.87939453125 275.5020751953125 1149.890625 275.548583984375 C 1149.87939453125 275.5839233398438 1149.87939453125 275.63037109375 1149.87939453125 275.6649780273438 C 1149.87939453125 276.2692260742188 1150.018310546875 277.1181030273438 1150.448486328125 277.9085693359375 C 1150.34423828125 277.9198608398438 1150.22802734375 277.931884765625 1150.10009765625 277.931884765625 C 1148.693115234375 277.931884765625 1147.181640625 276.90869140625 1145.519287109375 275.548583984375 C 1147.181640625 274.17724609375 1148.693115234375 273.15478515625 1150.10009765625 273.15478515625 M 1133.01025390625 247.3409271240234 C 1136.451416015625 247.3409271240234 1142.205810546875 255.2907867431641 1150.367431640625 255.2907867431641 C 1151.099365234375 255.2907867431641 1151.750244140625 255.2209320068359 1152.3203125 255.1045989990234 C 1152.890380859375 255.2209320068359 1153.541259765625 255.2907867431641 1154.273193359375 255.2907867431641 C 1162.434814453125 255.2907867431641 1168.189453125 247.3409271240234 1171.619384765625 247.3409271240234 C 1172.79345703125 247.3409271240234 1173.47998046875 248.3062286376953 1173.060791015625 249.4681854248047 C 1172.177001953125 251.9317474365234 1165.795166015625 258.1731567382812 1162.08642578125 261.2650146484375 C 1159.98193359375 263.0079345703125 1155.226806640625 266.657470703125 1152.3203125 270.353515625 C 1149.413818359375 266.657470703125 1144.65869140625 263.0079345703125 1142.554931640625 261.2650146484375 C 1138.845703125 258.1731567382812 1132.463623046875 251.9317474365234 1131.579833984375 249.4681854248047 C 1131.161376953125 248.3062286376953 1131.84716796875 247.3409271240234 1133.01025390625 247.3409271240234 M 1172.108154296875 307.0696411132812 L 1132.533203125 307.0696411132812 C 1127.179931640625 307.0696411132812 1123.720947265625 303.4744262695312 1123.720947265625 297.910400390625 C 1123.720947265625 295.5688781738281 1124.196533203125 293.4578247070312 1125.134643554688 291.6358642578125 C 1125.947265625 290.0573120117188 1127.129760742188 288.655029296875 1128.649169921875 287.4679870605469 C 1131.370483398438 285.3418579101562 1134.628295898438 284.2645568847656 1137.245849609375 283.39892578125 C 1137.900146484375 283.1825561523438 1138.518188476562 282.9781799316406 1139.043701171875 282.7826843261719 C 1139.798095703125 282.4983520507812 1140.673950195312 282.218505859375 1141.601440429688 281.9222412109375 C 1142.731201171875 281.561279296875 1143.939331054688 281.1753845214844 1145.10107421875 280.7266540527344 C 1144.845458984375 280.6907958984375 1144.58642578125 280.6540832519531 1144.324951171875 280.6170349121094 C 1143.408203125 280.487060546875 1142.463989257812 280.3532409667969 1141.493041992188 280.2302551269531 C 1139.410522460938 281.8269348144531 1136.67138671875 283.5458984375 1133.498291015625 283.5458984375 C 1132.265502929688 283.5458984375 1131.128295898438 283.2929992675781 1130.118530273438 282.7942504882812 C 1129.1865234375 282.3339233398438 1128.381469726562 281.6748962402344 1127.72509765625 280.8350830078125 C 1126.50146484375 279.5155029296875 1125.906494140625 277.869384765625 1125.906494140625 275.8045654296875 C 1125.906494140625 275.7255249023438 1125.906494140625 275.6389770507812 1125.913452148438 275.5396728515625 C 1125.906494140625 275.4416198730469 1125.906494140625 275.3524780273438 1125.906494140625 275.2814331054688 C 1125.906494140625 273.2035522460938 1126.511108398438 271.5436401367188 1127.755004882812 270.2068176269531 L 1127.804931640625 270.153076171875 C 1129.186279296875 268.4355773925781 1131.1513671875 267.52880859375 1133.498291015625 267.52880859375 C 1134.966796875 267.52880859375 1136.431274414062 267.8866577148438 1137.9755859375 268.6227416992188 C 1139.079223632812 269.1488952636719 1140.236938476562 269.8809814453125 1141.505004882812 270.8553466796875 C 1142.513305664062 270.7270812988281 1143.490234375 270.5871887207031 1144.438598632812 270.4513854980469 C 1144.657104492188 270.4200744628906 1144.873779296875 270.3890380859375 1145.088256835938 270.3585510253906 C 1143.934814453125 269.9136962890625 1142.736450195312 269.5301208496094 1141.615600585938 269.1713562011719 C 1140.68212890625 268.87255859375 1139.800415039062 268.59033203125 1139.03857421875 268.3021545410156 C 1138.510498046875 268.1043395996094 1137.885009765625 267.8964538574219 1137.222778320312 267.6763916015625 C 1134.607543945312 266.8072509765625 1131.352783203125 265.7256164550781 1128.637329101562 263.6001281738281 C 1127.121337890625 262.41357421875 1125.941650390625 261.0128479003906 1125.130981445312 259.4368591308594 C 1124.1953125 257.6180725097656 1123.720947265625 255.5114593505859 1123.720947265625 253.1755218505859 C 1123.720947265625 247.6046447753906 1127.179931640625 244.0049896240234 1132.533203125 244.0049896240234 L 1172.108154296875 244.0049896240234 C 1177.461547851562 244.0049896240234 1180.920654296875 247.6046447753906 1180.920654296875 253.1755218505859 C 1180.920654296875 255.5114288330078 1180.4462890625 257.6180114746094 1179.510620117188 259.4367980957031 C 1178.699829101562 261.0127868652344 1177.52001953125 262.4134826660156 1176.004028320312 263.6000671386719 C 1173.288330078125 265.7254943847656 1170.033447265625 266.8071594238281 1167.418090820312 267.6763000488281 C 1166.755737304688 267.8964233398438 1166.130126953125 268.1043090820312 1165.59912109375 268.3032531738281 C 1164.840209960938 268.5904235839844 1163.958251953125 268.8727416992188 1163.0244140625 269.1716613769531 C 1161.903198242188 269.5306091308594 1160.704345703125 269.9143371582031 1159.550537109375 270.3594970703125 C 1159.750854492188 270.3879699707031 1159.953247070312 270.4169311523438 1160.157104492188 270.4461059570312 C 1161.119018554688 270.583740234375 1162.109985351562 270.7255554199219 1163.135498046875 270.8554992675781 C 1164.403686523438 269.8810424804688 1165.5615234375 269.1488952636719 1166.665283203125 268.6227416992188 C 1168.20947265625 267.8866577148438 1169.673950195312 267.52880859375 1171.142333984375 267.52880859375 C 1173.490478515625 267.52880859375 1175.4560546875 268.4360961914062 1176.837524414062 270.1550598144531 L 1176.885620117188 270.2067260742188 C 1178.130126953125 271.5440063476562 1178.735107421875 273.2039489746094 1178.735107421875 275.2814331054688 C 1178.735107421875 275.3525390625 1178.735107421875 275.4413452148438 1178.727783203125 275.5397033691406 C 1178.735107421875 275.6390380859375 1178.735107421875 275.7254943847656 1178.735107421875 275.8045654296875 C 1178.735107421875 277.8689880371094 1178.139770507812 279.5151062011719 1176.91552734375 280.8351440429688 C 1175.529907226562 282.6087341308594 1173.53466796875 283.5458984375 1171.142333984375 283.5458984375 C 1167.96875 283.5458984375 1165.22998046875 281.8268432617188 1163.147583007812 280.2300720214844 C 1162.162109375 280.3544921875 1161.207275390625 280.4898986816406 1160.280151367188 280.6213684082031 C 1160.030517578125 280.6567687988281 1159.783203125 280.6918640136719 1159.538818359375 280.7261657714844 C 1160.700927734375 281.1752014160156 1161.909423828125 281.561279296875 1163.039794921875 281.9223937988281 C 1163.966918945312 282.2186279296875 1164.8427734375 282.4984130859375 1165.600952148438 282.7841491699219 C 1166.12255859375 282.9781799316406 1166.740600585938 283.1825866699219 1167.39501953125 283.3989868164062 C 1170.012817382812 284.2646179199219 1173.270629882812 285.3419189453125 1175.9921875 287.4680480957031 C 1177.511596679688 288.6551208496094 1178.694091796875 290.057373046875 1179.506958007812 291.6358947753906 C 1180.444946289062 293.4578857421875 1180.920654296875 295.5689086914062 1180.920654296875 297.910400390625 C 1180.920654296875 303.4744262695312 1177.461547851562 307.0696411132812 1172.108154296875 307.0696411132812 Z M 1154.273193359375 294.7831420898438 C 1156.632568359375 294.7831420898438 1158.992065429688 295.3914184570312 1161.48681640625 296.6427307128906 C 1163.593505859375 297.6994323730469 1165.442138671875 299.0320434570312 1167.073364257812 300.207763671875 C 1168.883422851562 301.5125732421875 1170.59326171875 302.7449951171875 1171.619384765625 302.7449951171875 C 1171.85009765625 302.7449951171875 1172.025024414062 302.6768493652344 1172.111938476562 302.5531005859375 C 1172.205688476562 302.4197387695312 1172.208618164062 302.2024536132812 1172.1201171875 301.9569091796875 C 1171.958129882812 301.5035095214844 1171.226196289062 300.0838012695312 1167.912353515625 296.6399230957031 C 1165.902587890625 294.5513000488281 1163.425415039062 292.2334899902344 1161.447509765625 290.5909729003906 C 1161.156982421875 290.3501892089844 1160.818115234375 290.0752868652344 1160.425903320312 289.7569580078125 C 1158.290649414062 288.0243835449219 1154.857177734375 285.2384033203125 1152.3203125 282.3032836914062 C 1149.784790039062 285.2367553710938 1146.353149414062 288.0217895507812 1144.219116210938 289.7537841796875 C 1143.825439453125 290.0733337402344 1143.4853515625 290.3493041992188 1143.193115234375 290.5915832519531 C 1141.2158203125 292.2333679199219 1138.738403320312 294.5511779785156 1136.728393554688 296.6399536132812 C 1133.414428710938 300.0837707519531 1132.682495117188 301.5035095214844 1132.521606445312 301.9540405273438 C 1132.431884765625 302.203125 1132.435180664062 302.4216918945312 1132.529541015625 302.5560607910156 C 1132.615234375 302.6778869628906 1132.785888671875 302.7449951171875 1133.01025390625 302.7449951171875 C 1134.042358398438 302.7449951171875 1135.756591796875 301.5103149414062 1137.571411132812 300.203125 C 1139.202758789062 299.028076171875 1141.051879882812 297.6962585449219 1143.15771484375 296.6406555175781 C 1145.651245117188 295.3907470703125 1148.009521484375 294.7831420898438 1150.367431640625 294.7831420898438 C 1151.05029296875 294.7831420898438 1151.706176757812 294.8395690917969 1152.3203125 294.9509887695312 C 1152.934448242188 294.8395690917969 1153.59033203125 294.7831420898438 1154.273193359375 294.7831420898438 Z M 1147.135131835938 275.5455627441406 C 1147.751342773438 276.0028381347656 1148.379516601562 276.4093933105469 1148.971557617188 276.6620788574219 C 1148.9111328125 276.3285827636719 1148.87939453125 275.9924621582031 1148.87939453125 275.6649780273438 C 1148.87939453125 275.6359252929688 1148.87939453125 275.594970703125 1148.882568359375 275.5453491210938 C 1148.87939453125 275.4952087402344 1148.87939453125 275.4533996582031 1148.87939453125 275.4210205078125 C 1148.87939453125 275.179443359375 1148.896728515625 274.8326416015625 1148.967895507812 274.4255065917969 C 1148.37548828125 274.6789855957031 1147.7490234375 275.0867309570312 1147.135131835938 275.5455627441406 Z M 1155.758666992188 275.5469665527344 C 1155.76123046875 275.588623046875 1155.761962890625 275.6279907226562 1155.761962890625 275.6649780273438 C 1155.761962890625 275.9923706054688 1155.730224609375 276.3285217285156 1155.669677734375 276.6620483398438 C 1156.261474609375 276.4093933105469 1156.8896484375 276.0028381347656 1157.505737304688 275.5455627441406 C 1156.891967773438 275.0867309570312 1156.265502929688 274.6790161132812 1155.67333984375 274.4255065917969 C 1155.744506835938 274.8327026367188 1155.761962890625 275.1795043945312 1155.761962890625 275.4210205078125 C 1155.761962890625 275.453857421875 1155.761962890625 275.4962158203125 1155.758666992188 275.5469665527344 Z M 1133.01025390625 248.3409271240234 C 1132.786010742188 248.3409271240234 1132.615356445312 248.4080963134766 1132.529663085938 248.5300598144531 C 1132.435180664062 248.6644897460938 1132.431884765625 248.8829193115234 1132.520629882812 249.1293487548828 C 1132.681884765625 249.5785980224609 1133.41357421875 250.9927368164062 1136.728393554688 254.4376068115234 C 1138.734130859375 256.5220336914062 1141.212036132812 258.8438110351562 1143.195190429688 260.4968872070312 C 1143.478759765625 260.7317810058594 1143.809814453125 261.0007019042969 1144.193115234375 261.3120727539062 C 1146.333740234375 263.0508728027344 1149.776245117188 265.8472290039062 1152.3203125 268.7848815917969 C 1154.86572265625 265.8457641601562 1158.310424804688 263.048095703125 1160.451904296875 261.308837890625 C 1160.833862304688 260.9986877441406 1161.16357421875 260.7308654785156 1161.448608398438 260.4948425292969 C 1163.42919921875 258.8436889648438 1165.906860351562 256.5219116210938 1167.912353515625 254.4376373291016 C 1171.22705078125 250.9927062988281 1171.958740234375 249.5785980224609 1172.119506835938 249.1305084228516 C 1172.208618164062 248.8836059570312 1172.20556640625 248.6664276123047 1172.111938476562 248.5330047607422 C 1172.02490234375 248.4091491699219 1171.849975585938 248.3409271240234 1171.619384765625 248.3409271240234 C 1170.5927734375 248.3409271240234 1168.882934570312 249.5715789794922 1167.07275390625 250.8744659423828 C 1165.441650390625 252.0484313964844 1163.592895507812 253.3790283203125 1161.486328125 254.4340972900391 C 1158.99169921875 255.6834564208984 1156.63232421875 256.290771484375 1154.273193359375 256.290771484375 C 1153.590454101562 256.290771484375 1152.9345703125 256.2343444824219 1152.3203125 256.1229248046875 C 1151.7060546875 256.2343444824219 1151.050170898438 256.290771484375 1150.367431640625 256.290771484375 C 1148.009765625 256.290771484375 1145.651611328125 255.6841278076172 1143.158203125 254.4361724853516 C 1141.052490234375 253.3821868896484 1139.203369140625 252.0523834228516 1137.572021484375 250.8791198730469 C 1135.757080078125 249.5738372802734 1134.042724609375 248.3409271240234 1133.01025390625 248.3409271240234 Z" stroke="none" fill="#102751"/></g></svg>