<svg xmlns="http://www.w3.org/2000/svg" width="18.1" height="24" viewBox="0 0 18.1 24"><g transform="translate(-421.5 -61.5)"><rect width="18.1" height="24" transform="translate(421.5 61.5)" fill="#f0f0f0" opacity="0"/><path d="M3.006,0H1.547V-9.633H3.006ZM1.424-12.243a.969.969,0,0,1,.246-.734.86.86,0,0,1,.615-.233.86.86,0,0,1,.606.237.951.951,0,0,1,.255.729.966.966,0,0,1-.255.734.851.851,0,0,1-.606.242.843.843,0,0,1-.615-.242A.987.987,0,0,1,1.424-12.243Z" transform="translate(434 80)" fill="#f19f39"/><path d="M9.844,0l-1.6-4.087H3.094L1.512,0H0L5.08-12.9H6.337L11.391,0ZM7.778-5.432,6.284-9.413q-.29-.756-.6-1.854a16.653,16.653,0,0,1-.554,1.854L3.621-5.432Z" transform="translate(423.5 80)" fill="#36495d"/></g></svg>