<svg xmlns="http://www.w3.org/2000/svg" width="14.083" height="13.236" viewBox="0 0 14.083 13.236">
  <g id="Group_322" data-name="Group 322" transform="translate(-220.309 -600.764)">
    <path id="Path_193" data-name="Path 193" d="M4.126,0,2.544-4.078h-5.15L-4.179,0H-5.691L-.664-12.9H.681L5.673,0ZM2.1-5.405.593-9.457.422-9.976Q.3-10.336.18-10.723t-.2-.624q-.088.36-.189.716t-.2.659q-.1.3-.167.514L-2.1-5.405Z" transform="translate(226 614)" fill="#36495d"/>
    <path id="Path_192" data-name="Path 192" d="M.725-9.633V0H-.734V-9.633Zm-.712-3.6A.9.9,0,0,1,.633-13a.928.928,0,0,1,.259.725.93.93,0,0,1-.259.721.886.886,0,0,1-.62.237.878.878,0,0,1-.628-.237.949.949,0,0,1-.25-.721A.946.946,0,0,1-.615-13,.887.887,0,0,1,.013-13.236Z" transform="translate(233.5 614)" fill="#f19f39"/>
  </g>
</svg>
