<svg xmlns="http://www.w3.org/2000/svg" width="25.5" height="24" viewBox="0 0 25.5 24"><g transform="translate(-647.3 -61.5)"><rect width="25.5" height="24" transform="translate(647.3 61.5)" fill="#f0f0f0" opacity="0"/><path d="M9.431-9.633v.923L7.646-8.5a3.067,3.067,0,0,1,.439.8,3.068,3.068,0,0,1,.193,1.121,2.848,2.848,0,0,1-.967,2.259,3.9,3.9,0,0,1-2.654.844,4.42,4.42,0,0,1-.809-.07A1.436,1.436,0,0,0,2.918-2.3a.63.63,0,0,0,.325.584,2.376,2.376,0,0,0,1.116.189H6.064a3.818,3.818,0,0,1,2.4.659,2.29,2.29,0,0,1,.839,1.916A2.735,2.735,0,0,1,8.024,3.485a6.868,6.868,0,0,1-3.744.839,5.115,5.115,0,0,1-2.914-.7A2.27,2.27,0,0,1,.343,1.635,2.231,2.231,0,0,1,.905.114a2.864,2.864,0,0,1,1.582-.87,1.526,1.526,0,0,1-.62-.519,1.372,1.372,0,0,1-.25-.817A1.551,1.551,0,0,1,1.9-3.015a2.957,2.957,0,0,1,.888-.765A2.6,2.6,0,0,1,1.569-4.825,3.073,3.073,0,0,1,1.1-6.513a3.117,3.117,0,0,1,.949-2.439,3.875,3.875,0,0,1,2.689-.857A4.891,4.891,0,0,1,6.1-9.633ZM1.749,1.617A1.307,1.307,0,0,0,2.408,2.8a3.638,3.638,0,0,0,1.89.4,5.273,5.273,0,0,0,2.72-.549A1.682,1.682,0,0,0,7.9,1.169,1.179,1.179,0,0,0,7.418.083,3.754,3.754,0,0,0,5.6-.22H3.85A2.3,2.3,0,0,0,2.3.255,1.7,1.7,0,0,0,1.749,1.617ZM2.54-6.548a1.961,1.961,0,0,0,.571,1.529A2.281,2.281,0,0,0,4.7-4.5,1.861,1.861,0,0,0,6.838-6.574,1.915,1.915,0,0,0,4.676-8.745a2.141,2.141,0,0,0-1.582.554A2.23,2.23,0,0,0,2.54-6.548Z" transform="translate(660.9 80)" fill="#b52e31"/><path d="M11.8,0H10.1L3.076-10.784h-.07q.141,1.9.141,3.48V0H1.767V-12.85H3.454l7,10.74h.07q-.018-.237-.079-1.525t-.044-1.841V-12.85h1.4Z" transform="translate(648 80)" fill="#36495d"/></g></svg>