<svg xmlns="http://www.w3.org/2000/svg" width="20.071" height="12.902" viewBox="0 0 20.071 12.902">
  <g id="Group_401" data-name="Group 401" transform="translate(-395 -67.098)">
    <path id="Path_249" data-name="Path 249" d="M9.817,0,8.235-4.078H3.085L1.512,0H0L5.027-12.9H6.372L11.364,0ZM7.787-5.405l-1.5-4.052-.171-.519q-.119-.36-.242-.747t-.2-.624q-.088.36-.189.716t-.2.659q-.1.3-.167.514L3.586-5.405Z" transform="translate(395 80)" fill="#36495d"/>
    <path id="Path_250" data-name="Path 250" d="M6.1-9.809a3.618,3.618,0,0,1,2.593.839,3.586,3.586,0,0,1,.879,2.694V0H8.13V-6.179a2.585,2.585,0,0,0-.549-1.8,2.178,2.178,0,0,0-1.683-.6,2.585,2.585,0,0,0-2.25.905A4.472,4.472,0,0,0,3-5.045V0H1.538V-9.633H2.716l.22,1.389h.079A2.919,2.919,0,0,1,3.8-9.1,3.541,3.541,0,0,1,4.86-9.628,4.212,4.212,0,0,1,6.1-9.809Z" transform="translate(405.5 80)" fill="#4b4bd0"/>
  </g>
</svg>
