<svg xmlns="http://www.w3.org/2000/svg" width="24" height="24" viewBox="0 0 24 24"><g transform="translate(-390 -61.5)"><rect width="24" height="24" transform="translate(390 61.5)" fill="#73A8FD" opacity="0"/><path d="M9.817,0,8.235-4.078H3.085L1.512,0H0L5.027-12.9H6.372L11.364,0ZM7.787-5.405l-1.5-4.052-.171-.519q-.119-.36-.242-.747t-.2-.624q-.088.36-.189.716t-.2.659q-.1.3-.167.514L3.586-5.405Z" transform="translate(391.5 80)" fill="#F6F7F8"/><path d="M6.1-9.809a3.618,3.618,0,0,1,2.593.839,3.586,3.586,0,0,1,.879,2.694V0H8.13V-6.179a2.585,2.585,0,0,0-.549-1.8,2.178,2.178,0,0,0-1.683-.6,2.585,2.585,0,0,0-2.25.905A4.472,4.472,0,0,0,3-5.045V0H1.538V-9.633H2.716l.22,1.389h.079A2.919,2.919,0,0,1,3.8-9.1,3.541,3.541,0,0,1,4.86-9.628,4.212,4.212,0,0,1,6.1-9.809Z" transform="translate(402 80)" fill="#73A8FD"/></g></svg>