<svg xmlns="http://www.w3.org/2000/svg" width="14.9" height="24" viewBox="0 0 14.9 24"><g transform="translate(-515.5 -61.5)"><rect width="14.9" height="24" transform="translate(515.5 61.5)" fill="#f0f0f0" opacity="0"/><path d="M3.006,0H1.547V-9.633H3.006ZM1.424-12.243a.969.969,0,0,1,.246-.734.86.86,0,0,1,.615-.233.86.86,0,0,1,.606.237.951.951,0,0,1,.255.729.966.966,0,0,1-.255.734.851.851,0,0,1-.606.242.843.843,0,0,1-.615-.242A.987.987,0,0,1,1.424-12.243Z" transform="translate(524.734 80)" fill="#a259ff"/><path d="M3.261,0H1.767V-12.85H8.93v1.327H3.261v4.7H8.587v1.327H3.261Z" transform="translate(516.234 80)" fill="#36495d"/></g></svg>