<svg id="Group_386" data-name="Group 386" xmlns="http://www.w3.org/2000/svg" width="13.333" height="20" viewBox="0 0 13.333 20">
  <g id="Path_222" data-name="Path 222" transform="translate(-12.347 -12.34)" fill="#1abcfe">
    <path d="M 22.33992767333984 25.17985725402832 C 20.77398681640625 25.17985725402832 19.49999809265137 23.90586853027344 19.49999809265137 22.33992767333984 C 19.49999809265137 20.77398681640625 20.77398681640625 19.49999809265137 22.33992767333984 19.49999809265137 C 23.90586853027344 19.49999809265137 25.17985725402832 20.77398681640625 25.17985725402832 22.33992767333984 C 25.17985725402832 23.90586853027344 23.90586853027344 25.17985725402832 22.33992767333984 25.17985725402832 Z" stroke="none"/>
    <path d="M 22.33992767333984 19.99999809265137 C 21.0496883392334 19.99999809265137 19.99999809265137 21.0496883392334 19.99999809265137 22.33992767333984 C 19.99999809265137 23.63016700744629 21.0496883392334 24.67985725402832 22.33992767333984 24.67985725402832 C 23.63016700744629 24.67985725402832 24.67985725402832 23.63016700744629 24.67985725402832 22.33992767333984 C 24.67985725402832 21.0496883392334 23.63016700744629 19.99999809265137 22.33992767333984 19.99999809265137 M 22.33992767333984 18.99999809265137 C 24.18451690673828 18.99999809265137 25.67985725402832 20.49533843994141 25.67985725402832 22.33992767333984 C 25.67985725402832 24.18451690673828 24.18451690673828 25.67985725402832 22.33992767333984 25.67985725402832 C 20.49533843994141 25.67985725402832 18.99999809265137 24.18451690673828 18.99999809265137 22.33992767333984 C 18.99999809265137 20.49533843994141 20.49533843994141 18.99999809265137 22.33992767333984 18.99999809265137 Z" stroke="none" fill="#36495d"/>
  </g>
  <g id="Path_223" data-name="Path 223" transform="translate(0 -24.68)" fill="none">
    <path d="M0,41.34A3.34,3.34,0,0,1,3.34,38H6.68v3.34a3.34,3.34,0,0,1-6.68,0Z" stroke="none"/>
    <path d="M 3.339926481246948 38.99999618530273 C 2.049686431884766 38.99999618530273 0.9999966621398926 40.04968643188477 0.9999966621398926 41.33992767333984 C 0.9999966621398926 42.63016891479492 2.049686431884766 43.67984771728516 3.339926481246948 43.67984771728516 C 4.630166530609131 43.67984771728516 5.679856300354004 42.63016891479492 5.679856300354004 41.33992767333984 L 5.679856300354004 38.99999618530273 L 3.339926481246948 38.99999618530273 M 3.339926481246948 37.99999618530273 L 6.679856300354004 37.99999618530273 L 6.679856300354004 41.33992767333984 C 6.679856300354004 43.18451690673828 5.184516429901123 44.67984771728516 3.339926481246948 44.67984771728516 C 1.495336532592773 44.67984771728516 -3.337860107421875e-06 43.18451690673828 -3.337860107421875e-06 41.33992767333984 C -3.337860107421875e-06 39.49533843994141 1.495336532592773 37.99999618530273 3.339926481246948 37.99999618530273 Z" stroke="none" fill="#36495d"/>
  </g>
  <g id="Path_224" data-name="Path 224" transform="translate(-12.347 0)" fill="#ff7262">
    <path d="M 22.33992767333984 6.179856300354004 L 19.49999809265137 6.179856300354004 L 19.49999809265137 0.4999964833259583 L 22.33992767333984 0.4999964833259583 C 23.90586853027344 0.4999964833259583 25.17985725402832 1.773986458778381 25.17985725402832 3.339926481246948 C 25.17985725402832 4.905866622924805 23.90586853027344 6.179856300354004 22.33992767333984 6.179856300354004 Z" stroke="none"/>
    <path d="M 19.99999809265137 0.9999966621398926 L 19.99999809265137 5.679856300354004 L 22.33992767333984 5.679856300354004 C 23.63016700744629 5.679856300354004 24.67985725402832 4.630166530609131 24.67985725402832 3.339926481246948 C 24.67985725402832 2.049686431884766 23.63016700744629 0.9999966621398926 22.33992767333984 0.9999966621398926 L 19.99999809265137 0.9999966621398926 M 18.99999809265137 -3.337860107421875e-06 L 22.33992767333984 -3.337860107421875e-06 C 24.18451690673828 -3.337860107421875e-06 25.67985725402832 1.495336532592773 25.67985725402832 3.339926481246948 C 25.67985725402832 5.184516429901123 24.18451690673828 6.679856300354004 22.33992767333984 6.679856300354004 L 18.99999809265137 6.679856300354004 L 18.99999809265137 -3.337860107421875e-06 Z" stroke="none" fill="#36495d"/>
  </g>
  <g id="Path_225" data-name="Path 225" transform="translate(0)" fill="none">
    <path d="M0,3.34A3.34,3.34,0,0,0,3.34,6.68H6.68V0H3.34A3.34,3.34,0,0,0,0,3.34Z" stroke="none"/>
    <path d="M 3.33992600440979 0.9999966621398926 C 2.049685955047607 0.9999966621398926 0.9999961853027344 2.049686431884766 0.9999961853027344 3.339926481246948 C 0.9999961853027344 4.630166530609131 2.049685955047607 5.679856300354004 3.33992600440979 5.679856300354004 L 5.679855823516846 5.679856300354004 L 5.679855823516846 0.9999966621398926 L 3.33992600440979 0.9999966621398926 M 3.33992600440979 -3.337860107421875e-06 L 6.679855823516846 -3.337860107421875e-06 L 6.679855823516846 6.679856300354004 L 3.33992600440979 6.679856300354004 C 1.495336055755615 6.679856300354004 -3.814697265625e-06 5.184516429901123 -3.814697265625e-06 3.339926481246948 C -3.814697265625e-06 1.495336532592773 1.495336055755615 -3.337860107421875e-06 3.33992600440979 -3.337860107421875e-06 Z" stroke="none" fill="#36495d"/>
  </g>
  <g id="Path_226" data-name="Path 226" transform="translate(0 -12.34)" fill="#a259ff">
    <path d="M 6.179855823516846 25.17985725402832 L 3.33992600440979 25.17985725402832 C 1.773985981941223 25.17985725402832 0.4999960064888 23.90586853027344 0.4999960064888 22.33992767333984 C 0.4999960064888 20.77398681640625 1.773985981941223 19.49999809265137 3.33992600440979 19.49999809265137 L 6.179855823516846 19.49999809265137 L 6.179855823516846 25.17985725402832 Z" stroke="none"/>
    <path d="M 3.33992600440979 19.99999809265137 C 2.049685955047607 19.99999809265137 0.9999961853027344 21.0496883392334 0.9999961853027344 22.33992767333984 C 0.9999961853027344 23.63016700744629 2.049685955047607 24.67985725402832 3.33992600440979 24.67985725402832 L 5.679855823516846 24.67985725402832 L 5.679855823516846 19.99999809265137 L 3.33992600440979 19.99999809265137 M 3.33992600440979 18.99999809265137 L 6.679855823516846 18.99999809265137 L 6.679855823516846 25.67985725402832 L 3.33992600440979 25.67985725402832 C 1.495336055755615 25.67985725402832 -3.814697265625e-06 24.18451690673828 -3.814697265625e-06 22.33992767333984 C -3.814697265625e-06 20.49533843994141 1.495336055755615 18.99999809265137 3.33992600440979 18.99999809265137 Z" stroke="none" fill="#36495d"/>
  </g>
</svg>
