<svg xmlns="http://www.w3.org/2000/svg" width="16" height="24" viewBox="0 0 16 24">
  <g id="Group_422" data-name="Group 422" transform="translate(-364 -61.5)">
    <rect id="Rectangle_1875" data-name="Rectangle 1875" width="16" height="24" transform="translate(364 61.5)" fill="#f0f0f0" opacity="0"/>
    <path id="Path_595" data-name="Path 595" d="M2.615,0V-6.231a2.514,2.514,0,0,0-.536-1.758A2.184,2.184,0,0,0,.4-8.569a2.769,2.769,0,0,0-2.215.817,4.127,4.127,0,0,0-.7,2.7V0H-3.977V-9.633h1.187l.237,1.318h.07a2.979,2.979,0,0,1,1.257-1.1,4.084,4.084,0,0,1,1.8-.391,3.659,3.659,0,0,1,2.619.839,3.572,3.572,0,0,1,.879,2.685V0Z" transform="translate(373.834 80)" fill="#d6546a"/>
    <path id="Path_596" data-name="Path 596" d="M-.743,0V-12.85H.751V0Z" transform="translate(366.834 80)" fill="#36495d"/>
  </g>
</svg>
