<svg xmlns="http://www.w3.org/2000/svg" width="20" height="24" viewBox="0 0 20 24">
  <g id="Group_421" data-name="Group 421" transform="translate(-362 -61.5)">
    <rect id="Rectangle_1875" data-name="Rectangle 1875" width="20" height="24" transform="translate(362 61.5)" fill="#f0f0f0" opacity="0"/>
    <path id="Path_593" data-name="Path 593" d="M3.467-2.628a2.413,2.413,0,0,1-1,2.074A4.71,4.71,0,0,1-.347.176,6.116,6.116,0,0,1-3.335-.431V-1.784a7.227,7.227,0,0,0,1.49.554,6.221,6.221,0,0,0,1.534.2,3.478,3.478,0,0,0,1.758-.365A1.206,1.206,0,0,0,2.061-2.5a1.207,1.207,0,0,0-.488-.962,7.673,7.673,0,0,0-1.9-.945,10.318,10.318,0,0,1-1.912-.875,2.611,2.611,0,0,1-.844-.848,2.212,2.212,0,0,1-.277-1.134A2.161,2.161,0,0,1-2.4-9.127,4.464,4.464,0,0,1,.224-9.809a7.689,7.689,0,0,1,3.041.633L2.747-7.989a6.98,6.98,0,0,0-2.628-.6,3.023,3.023,0,0,0-1.564.325,1.006,1.006,0,0,0-.527.9,1.092,1.092,0,0,0,.2.659,1.952,1.952,0,0,0,.637.519,14.24,14.24,0,0,0,1.688.712A6.3,6.3,0,0,1,2.865-4.219,2.216,2.216,0,0,1,3.467-2.628Z" transform="translate(376.593 80)" fill="#6ba4f2"/>
    <path id="Path_594" data-name="Path 594" d="M4.5-9.105a3.6,3.6,0,0,1-1.332,3,6.032,6.032,0,0,1-3.81,1.05H-2.158V0H-3.652V-12.85H-.321Q4.5-12.85,4.5-9.105ZM-2.158-6.337H-.813a5,5,0,0,0,2.874-.642,2.365,2.365,0,0,0,.888-2.057,2.217,2.217,0,0,0-.835-1.9,4.362,4.362,0,0,0-2.6-.624h-1.67Z" transform="translate(367.593 80)" fill="#36495d"/>
  </g>
</svg>
