<svg xmlns="http://www.w3.org/2000/svg" width="15.326" height="12.85" viewBox="0 0 15.326 12.85">
  <g id="Group_402" data-name="Group 402" transform="translate(-370.758 -67.15)">
    <path id="Path_252" data-name="Path 252" d="M5.115-12.85a5.57,5.57,0,0,1,3.634.971A3.443,3.443,0,0,1,9.9-9.1a4.486,4.486,0,0,1-.268,1.551,3.3,3.3,0,0,1-.866,1.292,4.185,4.185,0,0,1-1.569.879,7.649,7.649,0,0,1-2.377.321H3.252V0H1.758V-12.85Zm-.141,1.274H3.252v5.238h1.4A6.811,6.811,0,0,0,6.7-6.6a2.3,2.3,0,0,0,1.235-.857A2.711,2.711,0,0,0,8.35-9.035a2.259,2.259,0,0,0-.817-1.912A4.2,4.2,0,0,0,4.975-11.575Z" transform="translate(369 80)" fill="#36495d"/>
    <path id="Path_251" data-name="Path 251" d="M5.915-9.809q.29,0,.606.031a5.03,5.03,0,0,1,.563.083L6.9-8.341a4.051,4.051,0,0,0-.527-.1,4.541,4.541,0,0,0-.545-.035,2.621,2.621,0,0,0-1.094.233,2.669,2.669,0,0,0-.9.668,3.168,3.168,0,0,0-.606,1.046,3.989,3.989,0,0,0-.22,1.358V0H1.538V-9.633H2.751l.158,1.775h.062a4.83,4.83,0,0,1,.721-.98,3.263,3.263,0,0,1,.98-.708A2.875,2.875,0,0,1,5.915-9.809Z" transform="translate(379 80)" fill="#4b4bd0"/>
  </g>
</svg>
