<svg xmlns="http://www.w3.org/2000/svg" width="22.5" height="24" viewBox="0 0 22.5 24"><g transform="translate(-480.5 -61.5)"><rect width="22.5" height="24" transform="translate(480.5 61.5)" fill="#f6f7f8" opacity="0"/><path d="M5.616.176a4.426,4.426,0,0,1-3.371-1.3A5.036,5.036,0,0,1,1.011-4.737a5.585,5.585,0,0,1,1.147-3.7A3.81,3.81,0,0,1,5.238-9.809,3.633,3.633,0,0,1,8.1-8.618,4.564,4.564,0,0,1,9.158-5.476v.923H2.522a3.818,3.818,0,0,0,.857,2.575,2.964,2.964,0,0,0,2.29.879,7.759,7.759,0,0,0,3.076-.65v1.3A7.721,7.721,0,0,1,7.282.031,8.224,8.224,0,0,1,5.616.176Zm-.4-8.763a2.383,2.383,0,0,0-1.85.756,3.484,3.484,0,0,0-.813,2.092H7.594a3.208,3.208,0,0,0-.615-2.114A2.165,2.165,0,0,0,5.221-8.587Z" transform="translate(491.332 80)" fill="#73A8FD"/><path d="M3.261-5.344V0H1.767V-12.85H5.291a5.546,5.546,0,0,1,3.494.905A3.282,3.282,0,0,1,9.914-9.22,3.413,3.413,0,0,1,7.33-5.774L10.819,0H9.053L5.941-5.344Zm0-1.283H5.309a3.536,3.536,0,0,0,2.32-.628,2.338,2.338,0,0,0,.738-1.885,2.145,2.145,0,0,0-.751-1.837A4.071,4.071,0,0,0,5.2-11.54H3.261Z" transform="translate(481.232 80)" fill="#f6f7f8"/></g></svg>