<svg xmlns="http://www.w3.org/2000/svg" width="20" height="21.687" viewBox="0 0 22 22">
  <g id="Group_278" data-name="Group 278" transform="translate(7198.339 5885.381)">
    <path id="Path_182" data-name="Path 182" d="M3.3-.01h0C1.47-.007-.019,4.039-.028,9.027s1.468,9.029,3.3,9.026S6.587,14,6.595,9.016,5.129-.01,3.3-.01m0-1h0a2.583,2.583,0,0,1,1.846.843A8.51,8.51,0,0,1,6.962,3.541a22.113,22.113,0,0,1,.633,5.476,20.28,20.28,0,0,1-1.042,6.732c-1,2.728-2.339,3.3-3.283,3.3a2.584,2.584,0,0,1-1.85-.843A8.51,8.51,0,0,1-.394,14.5a22.113,22.113,0,0,1-.633-5.476A20.28,20.28,0,0,1,.014,2.294C1.018-.434,2.354-1.009,3.3-1.01Z" transform="translate(-7195.678 -5880.708) rotate(-30)" fill="#36495d"/>
    <path id="Path_183" data-name="Path 183" d="M3.322.01C1.494.01.019,4.05.028,9.036s1.5,9.034,3.326,9.037,3.3-4.038,3.3-9.026S5.153.013,3.324.01h0m0-1h0c.945,0,2.28.576,3.284,3.3A20.28,20.28,0,0,1,7.65,9.045a22.111,22.111,0,0,1-.633,5.476A8.51,8.51,0,0,1,5.2,18.23a2.583,2.583,0,0,1-1.846.843c-.947,0-2.282-.576-3.286-3.3A20.28,20.28,0,0,1-.972,9.038,22.111,22.111,0,0,1-.339,3.562,8.51,8.51,0,0,1,1.476-.147,2.583,2.583,0,0,1,3.322-.99Z" transform="translate(-7186.695 -5884.037) rotate(30)" fill="#089da2"/>
    <path id="Path_194" data-name="Path 194" d="M3.3,0C1.476,0,0,4.029,0,9s1.476,9,3.3,9,3.3-4.029,3.3-9S5.119,0,3.3,0m0-1c.942,0,2.274.571,3.271,3.292A20.2,20.2,0,0,1,7.595,9a20.2,20.2,0,0,1-1.027,6.708C5.571,18.429,4.239,19,3.3,19S1.024,18.429.027,15.708A20.2,20.2,0,0,1-1,9,20.2,20.2,0,0,1,.027,2.292C1.024-.429,2.356-1,3.3-1Z" transform="translate(-7179.339 -5877.835) rotate(90)" fill="#36495d"/>
    <ellipse id="Ellipse_256" data-name="Ellipse 256" cx="1" cy="1" rx="1" ry="1" transform="translate(-7189.34 -5875.538)" fill="#36495d"/>
  </g>
</svg>
