<svg xmlns="http://www.w3.org/2000/svg" width="22" height="24" viewBox="0 0 22 24"><g transform="translate(-543 -61.5)"><rect width="22" height="24" transform="translate(543 61.5)" fill="#f6f7f8" opacity="0"/><path d="M2.988-4.931A17.157,17.157,0,0,1,4.14-6.337l3.111-3.3H8.982l-3.9,4.1L9.255,0H7.488l-3.4-4.553-1.1.949V0H1.547V-13.676H2.988v7.251q0,.483-.07,1.494Z" transform="translate(553.568 80)" fill="#FFE7A5"/><path d="M9.018-3.419A3.152,3.152,0,0,1,7.787-.773a5.335,5.335,0,0,1-3.34.949A8.365,8.365,0,0,1,.932-.413V-1.854a9.256,9.256,0,0,0,1.723.527A9.063,9.063,0,0,0,4.5-1.134,3.724,3.724,0,0,0,6.75-1.7a1.86,1.86,0,0,0,.756-1.578,2.025,2.025,0,0,0-.268-1.094,2.49,2.49,0,0,0-.9-.787A12.542,12.542,0,0,0,4.43-5.977,6.1,6.1,0,0,1,1.868-7.5,3.357,3.357,0,0,1,1.1-9.791a2.853,2.853,0,0,1,1.116-2.364,4.639,4.639,0,0,1,2.953-.879,8.7,8.7,0,0,1,3.524.7l-.466,1.3A7.965,7.965,0,0,0,5.133-11.7a2.994,2.994,0,0,0-1.854.51A1.68,1.68,0,0,0,2.61-9.773a2.169,2.169,0,0,0,.246,1.094,2.317,2.317,0,0,0,.831.782,10.32,10.32,0,0,0,1.789.787A7.081,7.081,0,0,1,8.257-5.563,3.042,3.042,0,0,1,9.018-3.419Z" transform="translate(544.568 80)" fill="#f6f7f8"/></g></svg>