<?xml version="1.0" encoding="UTF-8"?><svg xmlns="http://www.w3.org/2000/svg" viewBox="0 0 22.98 21"><defs><style>.g{fill:#fab204;}.h{fill:#fde27f;}.i{fill:#36495d;}</style></defs><g id="a"/><g id="b"><g id="c"><path id="d" class="h" d="M4.09,1.64l-.22,6.46L11.57,.5,4.09,1.64Z"/><path id="e" class="h" d="M11.49,.5l7.69,7.6-.22-6.46L11.49,.5Z"/><path id="f" class="g" d="M11.41,20.5l7.7-12.4H3.88l7.53,12.4Z"/><path class="i" d="M22.98,7.35s0-.03,0-.05c0-.04,0-.08,0-.12-.01-.05-.03-.08-.06-.12,0,0,0-.02,0-.03l-3.53-5.66s-.02-.01-.02-.02c-.03-.04-.06-.07-.1-.1-.02-.01-.03-.03-.04-.04-.06-.03-.12-.06-.18-.07L11.57,0s-.1,0-.15,0L4.02,1.15h0c-.06,.01-.12,.04-.17,.07-.02,.01-.03,.03-.05,.04-.04,.03-.07,.06-.09,.09,0,0-.02,.01-.02,.02L.07,7.03s0,.02,0,.03c-.02,.04-.05,.08-.06,.13,0,.04,0,.07,0,.11,0,.02,0,.03,0,.05,0,.09,.04,.17,.1,.25,0,0,0,.02,0,.02l10.91,13.2s.04,.03,.06,.05c.03,.03,.06,.05,.09,.07,.07,.04,.15,.06,.23,.06h0c.08,0,.16-.02,.23-.06,.02-.01,.04-.03,.06-.05,.03-.02,.07-.04,.1-.07L22.88,7.62s0-.02,0-.02c.05-.07,.09-.15,.1-.25Zm-4.51-5.28l.16,4.79L12.94,1.23l3.68,.56,1.86,.28Zm-.27,6.53l-6.8,10.94L4.77,8.6h13.44Zm1.45-1.14l-.13-3.97,2.17,3.48-2.04,.48Zm-14.57,.14L11.53,1.24l6.43,6.36H5.09Zm-.67-.74l.16-4.79,5.54-.85L4.42,6.86Zm-1.02,.61l-2.11-.5L3.53,3.46l-.13,4.02Zm.16,1.07l3.85,6.34L1.83,8.13l1.73,.41Zm15.87,0l1.72-.41-5.62,6.69,3.9-6.29Z"/></g></g></svg>