<svg xmlns="http://www.w3.org/2000/svg" width="30" height="24" viewBox="0 0 30 24"><g transform="translate(-571 -61.5)"><rect width="30" height="24" transform="translate(571 61.5)" fill="#f6f7f8" opacity="0"/><path d="M9.914-9.105a3.6,3.6,0,0,1-1.332,3,6.032,6.032,0,0,1-3.81,1.05H3.261V0H1.767V-12.85H5.1Q9.914-12.85,9.914-9.105ZM3.261-6.337H4.605a5,5,0,0,0,2.874-.642,2.365,2.365,0,0,0,.888-2.057,2.217,2.217,0,0,0-.835-1.9,4.362,4.362,0,0,0-2.6-.624H3.261Z" transform="translate(588.8 80)" fill="#73A8FD"/><path d="M12.981,0H11.5L8.912-8.6q-.185-.571-.413-1.441a8.407,8.407,0,0,1-.237-1.046,20.015,20.015,0,0,1-.615,2.54L5.133,0H3.656L.237-12.85H1.819L3.85-4.913A29.517,29.517,0,0,1,4.465-1.89a21.835,21.835,0,0,1,.7-3.146l2.3-7.813H9.053L11.47-4.966a23.966,23.966,0,0,1,.712,3.076,26.352,26.352,0,0,1,.633-3.041l2.021-7.919h1.582Z" transform="translate(573 80)" fill="#f6f7f8"/></g></svg>