<?xml version="1.0" encoding="UTF-8"?><svg xmlns="http://www.w3.org/2000/svg" viewBox="0 0 20 20"><defs><style>.d{fill:#117ac9;}.e{fill:#36495d;}</style></defs><g id="a"/><g id="b"><g id="c"><path class="d" d="M17.16,4.5l-.06-.08c-.62-.84-1.9-.95-2.56-.14l-.02,.02c-.78,.97,.44,2.57,.44,2.57,.99,1.3,.93,2.63,.93,2.63,.01,1.01-.13,2.01-.44,2.98l-.93,2.92-2.57-7.91c-.15-.46-.21-.79-.18-1.01,.03-.22,.15-.36,.36-.43,.21-.07,.51-.11,.89-.12v-.37c-.28,.01-.65,.02-1.11,.04-.46,.01-.94,.02-1.46,.02-.42,0-.84,0-1.27-.02-.43-.01-.79-.02-1.08-.04v.37c.19,.01,.37,.09,.55,.22s.34,.41,.47,.83l.81,2.42-2.01,6.05-2.69-7.97c-.1-.31-.16-.57-.18-.79-.02-.22,.03-.39,.14-.53,.11-.14,.31-.22,.59-.24v-.37c-.23,.01-.54,.02-.92,.04-.38,.01-.8,.02-1.26,.02-.43,0-.88,0-1.33-.02-.46-.01-.84-.02-1.17-.04v.37c.18,.01,.39,.1,.62,.26,.23,.16,.42,.47,.58,.93l4.07,11.6c.07,0,.15,0,.23,0,.08,0,.16,0,.23,0,.09,0,.17,0,.25,0,.08,0,.16,0,.23,0l2.82-8.65,2.89,8.65c.07,0,.15,0,.23,0,.08,0,.16,0,.23,0,.09,0,.17,0,.25,0,.08,0,.16,0,.23,0l2.94-9.46c.88-2.83,.93-3.8,.24-4.77Z"/><path class="e" d="M10,20C4.49,20,0,15.51,0,10S4.49,0,10,0s10,4.49,10,10-4.49,10-10,10ZM10,1C5.04,1,1,5.04,1,10s4.04,9,9,9,9-4.04,9-9S14.96,1,10,1Z"/></g></g></svg>