<svg xmlns="http://www.w3.org/2000/svg" width="23.6" height="24" viewBox="0 0 23.6 24"><g transform="translate(-450 -61.5)"><rect width="23.6" height="24" transform="translate(450 61.5)" fill="#f0f0f0" opacity="0"/><path d="M5.137,0h-1.7L-.031-5.66-3.555,0H-5.146l4.28-6.7L-4.847-12.85h1.661L.022-7.726,3.248-12.85H4.83L.857-6.724Z" transform="translate(457.146 80)" fill="#36495d"/><path d="M-.541.176a3.614,3.614,0,0,1-2.9-1.248A5.575,5.575,0,0,1-4.5-4.781a5.632,5.632,0,0,1,1.09-3.757,3.631,3.631,0,0,1,2.9-1.27,4,4,0,0,1,1.336.2,3.246,3.246,0,0,1,.984.541A3.381,3.381,0,0,1,2.5-8.3h.105q-.035-.272-.07-.747T2.5-9.817v-3.858H3.959V0H2.782l-.22-1.371H2.5a3.4,3.4,0,0,1-.69.782,3.2,3.2,0,0,1-.993.558A4.023,4.023,0,0,1-.541.176Zm.229-1.213a2.531,2.531,0,0,0,2.188-.879,4.409,4.409,0,0,0,.642-2.61V-4.79a5.38,5.38,0,0,0-.611-2.821A2.4,2.4,0,0,0-.312-8.6,2.236,2.236,0,0,0-2.325-7.563a5.144,5.144,0,0,0-.668,2.817A4.813,4.813,0,0,0-2.329-2,2.28,2.28,0,0,0-.312-1.037Z" transform="translate(467.146 80)" fill="#d234d5"/></g></svg>