<svg xmlns="http://www.w3.org/2000/svg" width="57.54" height="28.81" viewBox="0 0 57.54 28.81">
  <g id="Path_599" data-name="Path 599" transform="translate(1.269 1)" fill="rgba(53,53,53,0.4)" opacity="0.4">
    <path d="M 27.4936695098877 27.30980491638184 C 24.71379089355469 27.30980491638184 21.94606971740723 26.98667526245117 19.26741027832031 26.34939384460449 C 16.66304969787598 25.72979354858398 14.12666988372803 24.80974388122559 11.72871017456055 23.61482429504395 C 7.035759925842285 21.27629470825195 2.843800067901611 17.85002517700195 -0.3939799964427948 13.70643424987793 L -0.6347299814224243 13.39833450317383 L -0.393750011920929 13.09042453765869 C 2.844860076904297 8.952194213867188 7.036779880523682 5.529834270477295 11.72883033752441 3.193344354629517 C 14.12705039978027 1.999094367027283 16.66341018676758 1.079534411430359 19.26744079589844 0.460214376449585 C 21.94639015197754 -0.1769356280565262 24.71409034729004 -0.4999956488609314 27.4936695098877 -0.4999956488609314 C 30.27317047119141 -0.4999956488609314 33.04093933105469 -0.1769356280565262 35.72008895874023 0.4602043628692627 C 38.32415008544922 1.07949435710907 40.86095809936523 1.999044418334961 43.26004028320312 3.19331431388855 C 47.95246124267578 5.529204368591309 52.14812850952148 8.951444625854492 55.39345932006836 13.09004402160645 L 55.63520812988281 13.39833450317383 L 55.3936882019043 13.70681476593018 C 52.14918899536133 17.85077476501465 47.9534797668457 21.27692413330078 43.26015853881836 23.61485481262207 C 40.8613395690918 24.80980491638184 38.32450866699219 25.72983360290527 35.72011947631836 26.34939384460449 C 33.041259765625 26.98667526245117 30.27347946166992 27.30980491638184 27.4936695098877 27.30980491638184 Z M 18.03793716430664 20.10854530334473 C 18.1842098236084 20.32906723022461 18.42805480957031 20.46053504943848 18.69149017333984 20.46053504943848 C 18.8351993560791 20.46053504943848 18.97673034667969 20.42008399963379 19.10078048706055 20.34353446960449 C 19.27243041992188 20.23762512207031 19.39179992675781 20.07074356079102 19.43689918518066 19.87363433837891 C 19.48280906677246 19.67296409606934 19.44643020629883 19.46584510803223 19.33447074890137 19.29043388366699 L 19.33242034912109 19.2872142791748 L 19.33041000366211 19.28397369384766 C 19.19313049316406 19.06147384643555 18.95387077331543 18.92864418029785 18.69038009643555 18.92864418029785 C 18.54482078552246 18.92864418029785 18.40197944641113 18.97070503234863 18.27730941772461 19.05028343200684 C 17.92375564575195 19.2731876373291 17.81820869445801 19.74608421325684 18.03793716430664 20.10854530334473 Z M 27.22772026062012 8.731634140014648 C 24.71022987365723 8.731634140014648 22.66209983825684 10.77976417541504 22.66209983825684 13.29726409912109 C 22.66209983825684 15.81475448608398 24.71022987365723 17.86288452148438 27.22772026062012 17.86288452148438 C 29.74522018432617 17.86288452148438 31.79335021972656 15.81475448608398 31.79335021972656 13.29726409912109 C 31.79335021972656 10.77976417541504 29.74522018432617 8.731634140014648 27.22772026062012 8.731634140014648 Z M 50.23640441894531 15.81149196624756 C 50.04148864746094 15.9378604888916 49.92170715332031 16.13090705871582 49.88896560668945 16.33823394775391 C 50.12326049804688 16.12480163574219 50.34631729125977 15.9133415222168 50.55988693237305 15.70219230651855 C 50.44734573364258 15.71445655822754 50.33694839477539 15.75162315368652 50.23640441894531 15.81149196624756 Z M 23.76726341247559 1.976036071777344 C 23.85555839538574 2.011495113372803 23.95144844055176 2.03037428855896 24.05080032348633 2.03037428855896 C 24.19635963439941 2.03037428855896 24.33919906616211 1.988304376602173 24.46388053894043 1.908724308013916 C 24.46515083312988 1.907907366752625 24.46642875671387 1.907081484794617 24.46769332885742 1.906258702278137 C 24.23738479614258 1.926635265350342 24.00422668457031 1.949862360954285 23.76726341247559 1.976036071777344 Z" stroke="none"/>
    <path d="M 27.4936695098877 3.814697265625e-06 C 16.32397079467773 3.814697265625e-06 6.382678985595703 5.242923736572266 0 13.39857482910156 C 6.382678985595703 21.56689453125 16.32397079467773 26.80980491638184 27.4936695098877 26.80980491638184 C 38.66336822509766 26.80980491638184 48.60464859008789 21.56689453125 55 13.39857482910156 C 48.60464859008789 5.242923736572266 38.66336822509766 3.814697265625e-06 27.4936695098877 3.814697265625e-06 M 24.05079650878906 2.530368804931641 C 23.63055038452148 2.530368804931641 23.22147750854492 2.320436477661133 22.98526000976562 1.937604904174805 C 22.89661026000977 1.798294067382812 22.82062911987305 1.696985244750977 22.76996994018555 1.595674514770508 C 23.60580062866211 1.481695175170898 24.45429039001465 1.393043518066406 25.31545066833496 1.34239387512207 C 25.30278968811035 1.734973907470703 25.08749961853027 2.10223388671875 24.73290061950684 2.330184936523438 C 24.52052307128906 2.465744018554688 24.2839298248291 2.530368804931641 24.05079650878906 2.530368804931641 M 14.77894973754883 6.357355117797852 C 15.3868293762207 11.56228446960449 12.19549179077148 16.38728332519531 8.067001342773438 19.287353515625 C 8.067001342773438 19.287353515625 8.029010772705078 19.31268501281738 8.003681182861328 19.32535552978516 C 7.801059722900391 19.19870376586914 7.611099243164062 19.04674530029297 7.408470153808594 18.88210487365723 C 10.32120132446289 17.04582405090332 12.81602096557617 14.51300430297852 14.01911163330078 11.2836742401123 C 14.5889892578125 9.713335037231445 14.90559005737305 8.029014587402344 14.77894973754883 6.357355117797852 M 40.70227813720703 19.52797317504883 C 40.13240051269531 14.67764472961426 42.86782836914062 10.13124465942383 46.60372924804688 7.205844879150391 C 46.7936897277832 7.332485198974609 46.98365020751953 7.459123611450195 47.16094970703125 7.611093521118164 C 44.65345764160156 9.384063720703125 42.53857040405273 11.701584815979 41.46212005615234 14.60165405273438 C 40.89223861694336 16.15933418273926 40.57563781738281 17.84365463256836 40.70227813720703 19.52797317504883 M 7.851711273193359 8.231634140014648 C 7.636421203613281 8.231634140014648 7.446460723876953 8.130325317382812 7.332489013671875 7.965694427490234 C 7.674419403076172 7.699745178222656 8.016349792480469 7.459123611450195 8.358280181884766 7.218513488769531 C 8.434261322021484 7.31982421875 8.484920501708984 7.459123611450195 8.484920501708984 7.598434448242188 C 8.484920501708984 7.940364837646484 8.193641662597656 8.231634140014648 7.851711273193359 8.231634140014648 M 38.19480133056641 8.662214279174805 C 38.5240592956543 8.472253799438477 38.8786506652832 8.320283889770508 39.25856781005859 8.193643569946289 C 39.00529098510742 8.497585296630859 38.72668075561523 8.763525009155273 38.43540954589844 9.004144668579102 C 38.68869018554688 9.396734237670898 38.89131927490234 9.839973449707031 39.04328918457031 10.29587364196777 C 38.67602920532227 9.979274749755859 38.35942840576172 9.624685287475586 38.08081817626953 9.24476432800293 C 37.67556762695312 9.523374557495117 37.21965789794922 9.738664627075195 36.72576141357422 9.903293609619141 C 37.05503082275391 9.498044967651367 37.42229080200195 9.168773651123047 37.84020233154297 8.877504348754883 C 37.58692169189453 8.484914779663086 37.38430023193359 8.054344177246094 37.23233032226562 7.598434448242188 C 37.59959030151367 7.915035247802734 37.91619110107422 8.269624710083008 38.19480133056641 8.662214279174805 M 27.22772026062012 18.36288452148438 C 24.42897033691406 18.36288452148438 22.16210174560547 16.09601402282715 22.16210174560547 13.29726409912109 C 22.16210174560547 10.49850463867188 24.42897033691406 8.231634140014648 27.22772026062012 8.231634140014648 C 30.02647972106934 8.231634140014648 32.29335021972656 10.49850463867188 32.29335021972656 13.29726409912109 C 32.29335021972656 16.09601402282715 30.01382064819336 18.36288452148438 27.22772026062012 18.36288452148438 M 3.596588134765625 15.56412410736084 L 3.571258544921875 15.56412410736084 L 3.216670989990234 15.19686412811279 L 3.216670989990234 15.17153453826904 C 3.242000579833984 14.62698459625244 3.305320739746094 14.08243465423584 3.406631469726562 13.55054473876953 C 3.507938385009766 14.09509468078613 3.558601379394531 14.65231418609619 3.571258544921875 15.19686412811279 C 4.255119323730469 15.20953464508057 4.926319122314453 15.27285480499268 5.61016845703125 15.39949417114258 C 4.951641082763672 15.50080394744873 4.267791748046875 15.56412410736084 3.596588134765625 15.56412410736084 M 49.64310073852539 17.22311401367188 C 49.64310073852539 17.22311401367188 49.60511016845703 17.17246437072754 49.57978057861328 17.13446426391602 C 49.19985961914062 16.53925323486328 49.37715911865234 15.76675415039062 49.97237014770508 15.38682460784912 C 50.4536018371582 15.09555339813232 51.04882049560547 15.14621543884277 51.45405960083008 15.50080394744873 C 50.88417816162109 16.10868453979492 50.27629852294922 16.67856407165527 49.64310073852539 17.22311401367188 M 18.69148635864258 20.96053886413574 C 18.27144622802734 20.96053886413574 17.8614501953125 20.75328826904297 17.61569976806641 20.37646484375 C 17.24843978881836 19.78125381469727 17.42573928833008 18.99608421325684 18.0082893371582 18.62882423400879 C 18.60351181030273 18.2489013671875 19.38867568969727 18.42620849609375 19.75593185424805 19.02141380310059 C 20.13584899902344 19.61662483215332 19.95854949951172 20.40179443359375 19.36333847045898 20.7690544128418 C 19.15314102172852 20.89875221252441 18.92080688476562 20.96053886413574 18.69148635864258 20.96053886413574 M 44.95740127563477 20.26249504089355 C 44.60280990600586 20.26249504089355 44.32419967651367 19.97121429443359 44.32419967651367 19.6292839050293 C 44.32419967651367 19.287353515625 44.60280990600586 18.99608421325684 44.95740127563477 18.99608421325684 C 45.31198883056641 18.99608421325684 45.59061050415039 19.27469444274902 45.59061050415039 19.6292839050293 C 45.59061050415039 19.98388481140137 45.29933166503906 20.26249504089355 44.95740127563477 20.26249504089355 M 29.15266036987305 25.50540351867676 C 29.13999938964844 25.45475387573242 29.1273307800293 25.39143371582031 29.1273307800293 25.3281135559082 C 29.1273307800293 24.97352409362793 29.40593910217285 24.69491386413574 29.76053047180176 24.69491386413574 C 30.1151294708252 24.69491386413574 30.39373970031738 24.97352409362793 30.39373970031738 25.3281135559082 C 30.39373970031738 25.35344505310059 30.39373970031738 25.39143371582031 30.38106918334961 25.4167652130127 C 29.97582054138184 25.45475387573242 29.55791091918945 25.48008346557617 29.15266036987305 25.50540351867676 M 27.4936695098877 -0.9999961853027344 C 30.31208038330078 -0.9999961853027344 33.11877059936523 -0.6723747253417969 35.83576965332031 -0.02622604370117188 C 38.47686004638672 0.6018638610839844 41.04970932006836 1.53448486328125 43.48284912109375 2.745704650878906 C 48.24135971069336 5.114494323730469 52.49602890014648 8.584823608398438 55.78691101074219 12.78150463104248 L 56.27042007446289 13.39809417724609 L 55.78738021850586 14.01504421234131 C 52.49731826782227 18.21720504760742 48.24256896972656 21.69152450561523 43.48310089111328 24.06240463256836 C 41.05018997192383 25.27432441711426 38.47727966308594 26.20744514465332 35.83583831787109 26.83582496643066 C 33.11911010742188 27.48210525512695 30.31240081787109 27.80980491638184 27.4936695098877 27.80980491638184 C 24.67486953735352 27.80980491638184 21.86820983886719 27.48210525512695 19.15167999267578 26.83581352233887 C 16.51025009155273 26.20739364624023 13.93777084350586 25.27426528930664 11.50569915771484 24.06234359741211 C 6.746479034423828 21.6907844543457 2.495399475097656 18.21622467041016 -0.7879714965820312 14.01428413391113 L -1.269458770751953 13.39809417724609 L -0.7875099182128906 12.78226470947266 C 2.496681213378906 8.585803985595703 6.747688293457031 5.115234375 11.50593948364258 2.745763778686523 C 13.93825149536133 1.534553527832031 16.51068115234375 0.6019134521484375 19.15174865722656 -0.02622604370117188 C 21.86854934692383 -0.6723651885986328 24.67518043518066 -0.9999961853027344 27.4936695098877 -0.9999961853027344 Z M 27.22772026062012 17.36288452148438 C 29.46952056884766 17.36288452148438 31.29335021972656 15.53905391693115 31.29335021972656 13.29726409912109 C 31.29335021972656 11.05546474456787 29.46952056884766 9.231634140014648 27.22772026062012 9.231634140014648 C 24.98592948913574 9.231634140014648 23.16209983825684 11.05546474456787 23.16209983825684 13.29726409912109 C 23.16209983825684 15.53905391693115 24.98592948913574 17.36288452148438 27.22772026062012 17.36288452148438 Z M 18.69149017333984 19.96053504943848 C 18.74314117431641 19.96053504943848 18.79251098632812 19.94623374938965 18.83823013305664 19.91802406311035 C 18.91098022460938 19.87313461303711 18.93888854980469 19.80846405029297 18.94948959350586 19.76212501525879 C 18.96067047119141 19.71325492858887 18.96342086791992 19.63842391967773 18.91300964355469 19.55944442749023 L 18.90489959716797 19.54653549194336 C 18.83739852905273 19.4371452331543 18.72364044189453 19.42864418029785 18.69038009643555 19.42864418029785 C 18.63959884643555 19.42864418029785 18.59112930297852 19.44314384460449 18.54632186889648 19.47175407409668 L 18.54159164428711 19.47475433349609 C 18.42499923706055 19.54824829101562 18.38936996459961 19.71336936950684 18.46043014526367 19.84062576293945 C 18.5142707824707 19.91594314575195 18.59973526000977 19.96053504943848 18.69149017333984 19.96053504943848 Z" stroke="none" fill="#353535"/>
  </g>
</svg>
