<svg xmlns="http://www.w3.org/2000/svg" width="57.54" height="28.81" viewBox="0 0 57.54 28.81">
  <g id="Path_600" data-name="Path 600" transform="translate(1.269 1)" fill="none" opacity="0.052">
    <path d="M27.494,0A34.829,34.829,0,0,0,0,13.4,34.8,34.8,0,0,0,27.494,26.81,34.846,34.846,0,0,0,55,13.4,34.873,34.873,0,0,0,27.494,0Zm-.266,18.363A5.066,5.066,0,1,1,32.293,13.3,5.064,5.064,0,0,1,27.228,18.363ZM25.315,1.342a1.23,1.23,0,0,1-.583.988,1.256,1.256,0,0,1-1.748-.393C22.9,1.8,22.821,1.7,22.77,1.6,23.606,1.482,24.454,1.393,25.315,1.342ZM3.6,15.564H3.571L3.217,15.2v-.025a11.554,11.554,0,0,1,.19-1.621A10.361,10.361,0,0,1,3.571,15.2a12.36,12.36,0,0,1,2.039.2A13.357,13.357,0,0,1,3.6,15.564ZM8.358,7.219a.651.651,0,0,1,.127.38.643.643,0,0,1-.633.633.625.625,0,0,1-.519-.266C7.674,7.7,8.016,7.459,8.358,7.219ZM8.067,19.287s-.038.025-.063.038a6.028,6.028,0,0,1-.6-.443,15.753,15.753,0,0,0,6.611-7.6,11.9,11.9,0,0,0,.76-4.926C15.387,11.562,12.2,16.387,8.067,19.287Zm11.3,1.482a1.267,1.267,0,1,1-1.355-2.14,1.267,1.267,0,1,1,1.355,2.14Zm11.018,4.648c-.405.038-.823.063-1.228.089a.747.747,0,0,1-.025-.177.633.633,0,0,1,1.266,0A.215.215,0,0,1,30.381,25.417ZM39.043,10.3a6.281,6.281,0,0,1-.962-1.051,5.381,5.381,0,0,1-1.355.659A5.341,5.341,0,0,1,37.84,8.878,5.655,5.655,0,0,1,37.232,7.6a5.9,5.9,0,0,1,.962,1.064,5.761,5.761,0,0,1,1.064-.469A6.21,6.21,0,0,1,38.435,9,5.749,5.749,0,0,1,39.043,10.3Zm5.914,9.967a.633.633,0,0,1,0-1.266.627.627,0,0,1,.633.633A.635.635,0,0,1,44.957,20.262Zm-3.5-5.661a11.836,11.836,0,0,0-.76,4.926c-.57-4.85,2.166-9.4,5.9-12.322a5.67,5.67,0,0,1,.557.405A15.229,15.229,0,0,0,41.462,14.6Zm8.181,2.621s-.038-.051-.063-.089A1.256,1.256,0,0,1,51.454,15.5,23.274,23.274,0,0,1,49.643,17.223Z" stroke="none"/>
    <path d="M 27.4936695098877 3.814697265625e-06 C 16.32397079467773 3.814697265625e-06 6.382678985595703 5.242923736572266 0 13.39857482910156 C 6.382678985595703 21.56689453125 16.32397079467773 26.80980491638184 27.4936695098877 26.80980491638184 C 38.66336822509766 26.80980491638184 48.60464859008789 21.56689453125 55 13.39857482910156 C 48.60464859008789 5.242923736572266 38.66336822509766 3.814697265625e-06 27.4936695098877 3.814697265625e-06 M 24.05079650878906 2.530368804931641 C 23.63055038452148 2.530368804931641 23.22147750854492 2.320436477661133 22.98526000976562 1.937604904174805 C 22.89661026000977 1.798294067382812 22.82062911987305 1.696985244750977 22.76996994018555 1.595674514770508 C 23.60580062866211 1.481695175170898 24.45429039001465 1.393043518066406 25.31545066833496 1.34239387512207 C 25.30278968811035 1.734973907470703 25.08749961853027 2.10223388671875 24.73290061950684 2.330184936523438 C 24.52052307128906 2.465744018554688 24.2839298248291 2.530368804931641 24.05079650878906 2.530368804931641 M 14.77894973754883 6.357355117797852 C 15.3868293762207 11.56228446960449 12.19549179077148 16.38728332519531 8.067001342773438 19.287353515625 C 8.067001342773438 19.287353515625 8.029010772705078 19.31268501281738 8.003681182861328 19.32535552978516 C 7.801059722900391 19.19870376586914 7.611099243164062 19.04674530029297 7.408470153808594 18.88210487365723 C 10.32120132446289 17.04582405090332 12.81602096557617 14.51300430297852 14.01911163330078 11.2836742401123 C 14.5889892578125 9.713335037231445 14.90559005737305 8.029014587402344 14.77894973754883 6.357355117797852 M 40.70227813720703 19.52797317504883 C 40.13240051269531 14.67764472961426 42.86782836914062 10.13124465942383 46.60372924804688 7.205844879150391 C 46.7936897277832 7.332485198974609 46.98365020751953 7.459123611450195 47.16094970703125 7.611093521118164 C 44.65345764160156 9.384063720703125 42.53857040405273 11.701584815979 41.46212005615234 14.60165405273438 C 40.89223861694336 16.15933418273926 40.57563781738281 17.84365463256836 40.70227813720703 19.52797317504883 M 7.851711273193359 8.231634140014648 C 7.636421203613281 8.231634140014648 7.446460723876953 8.130325317382812 7.332489013671875 7.965694427490234 C 7.674419403076172 7.699745178222656 8.016349792480469 7.459123611450195 8.358280181884766 7.218513488769531 C 8.434261322021484 7.31982421875 8.484920501708984 7.459123611450195 8.484920501708984 7.598434448242188 C 8.484920501708984 7.940364837646484 8.193641662597656 8.231634140014648 7.851711273193359 8.231634140014648 M 38.19480133056641 8.662214279174805 C 38.5240592956543 8.472253799438477 38.8786506652832 8.320283889770508 39.25856781005859 8.193643569946289 C 39.00529098510742 8.497585296630859 38.72668075561523 8.763525009155273 38.43540954589844 9.004144668579102 C 38.68869018554688 9.396734237670898 38.89131927490234 9.839973449707031 39.04328918457031 10.29587364196777 C 38.67602920532227 9.979274749755859 38.35942840576172 9.624685287475586 38.08081817626953 9.24476432800293 C 37.67556762695312 9.523374557495117 37.21965789794922 9.738664627075195 36.72576141357422 9.903293609619141 C 37.05503082275391 9.498044967651367 37.42229080200195 9.168773651123047 37.84020233154297 8.877504348754883 C 37.58692169189453 8.484914779663086 37.38430023193359 8.054344177246094 37.23233032226562 7.598434448242188 C 37.59959030151367 7.915035247802734 37.91619110107422 8.269624710083008 38.19480133056641 8.662214279174805 M 27.22772026062012 18.36288452148438 C 24.42897033691406 18.36288452148438 22.16210174560547 16.09601402282715 22.16210174560547 13.29726409912109 C 22.16210174560547 10.49850463867188 24.42897033691406 8.231634140014648 27.22772026062012 8.231634140014648 C 30.02647972106934 8.231634140014648 32.29335021972656 10.49850463867188 32.29335021972656 13.29726409912109 C 32.29335021972656 16.09601402282715 30.01382064819336 18.36288452148438 27.22772026062012 18.36288452148438 M 3.596588134765625 15.56412410736084 L 3.571258544921875 15.56412410736084 L 3.216670989990234 15.19686412811279 L 3.216670989990234 15.17153453826904 C 3.242000579833984 14.62698459625244 3.305320739746094 14.08243465423584 3.406631469726562 13.55054473876953 C 3.507938385009766 14.09509468078613 3.558601379394531 14.65231418609619 3.571258544921875 15.19686412811279 C 4.255119323730469 15.20953464508057 4.926319122314453 15.27285480499268 5.61016845703125 15.39949417114258 C 4.951641082763672 15.50080394744873 4.267791748046875 15.56412410736084 3.596588134765625 15.56412410736084 M 49.64310073852539 17.22311401367188 C 49.64310073852539 17.22311401367188 49.60511016845703 17.17246437072754 49.57978057861328 17.13446426391602 C 49.19985961914062 16.53925323486328 49.37715911865234 15.76675415039062 49.97237014770508 15.38682460784912 C 50.4536018371582 15.09555339813232 51.04882049560547 15.14621543884277 51.45405960083008 15.50080394744873 C 50.88417816162109 16.10868453979492 50.27629852294922 16.67856407165527 49.64310073852539 17.22311401367188 M 18.69148635864258 20.96053886413574 C 18.27144622802734 20.96053886413574 17.8614501953125 20.75328826904297 17.61569976806641 20.37646484375 C 17.24843978881836 19.78125381469727 17.42573928833008 18.99608421325684 18.0082893371582 18.62882423400879 C 18.60351181030273 18.2489013671875 19.38867568969727 18.42620849609375 19.75593185424805 19.02141380310059 C 20.13584899902344 19.61662483215332 19.95854949951172 20.40179443359375 19.36333847045898 20.7690544128418 C 19.15314102172852 20.89875221252441 18.92080688476562 20.96053886413574 18.69148635864258 20.96053886413574 M 44.95740127563477 20.26249504089355 C 44.60280990600586 20.26249504089355 44.32419967651367 19.97121429443359 44.32419967651367 19.6292839050293 C 44.32419967651367 19.287353515625 44.60280990600586 18.99608421325684 44.95740127563477 18.99608421325684 C 45.31198883056641 18.99608421325684 45.59061050415039 19.27469444274902 45.59061050415039 19.6292839050293 C 45.59061050415039 19.98388481140137 45.29933166503906 20.26249504089355 44.95740127563477 20.26249504089355 M 29.15266036987305 25.50540351867676 C 29.13999938964844 25.45475387573242 29.1273307800293 25.39143371582031 29.1273307800293 25.3281135559082 C 29.1273307800293 24.97352409362793 29.40593910217285 24.69491386413574 29.76053047180176 24.69491386413574 C 30.1151294708252 24.69491386413574 30.39373970031738 24.97352409362793 30.39373970031738 25.3281135559082 C 30.39373970031738 25.35344505310059 30.39373970031738 25.39143371582031 30.38106918334961 25.4167652130127 C 29.97582054138184 25.45475387573242 29.55791091918945 25.48008346557617 29.15266036987305 25.50540351867676 M 27.4936695098877 -0.9999961853027344 C 30.31208038330078 -0.9999961853027344 33.11877059936523 -0.6723747253417969 35.83576965332031 -0.02622604370117188 C 38.47686004638672 0.6018638610839844 41.04970932006836 1.53448486328125 43.48284912109375 2.745704650878906 C 48.24135971069336 5.114494323730469 52.49602890014648 8.584823608398438 55.78691101074219 12.78150463104248 L 56.27042007446289 13.39809417724609 L 55.78738021850586 14.01504421234131 C 52.49731826782227 18.21720504760742 48.24256896972656 21.69152450561523 43.48310089111328 24.06240463256836 C 41.05018997192383 25.27432441711426 38.47727966308594 26.20744514465332 35.83583831787109 26.83582496643066 C 33.11911010742188 27.48210525512695 30.31240081787109 27.80980491638184 27.4936695098877 27.80980491638184 C 24.67486953735352 27.80980491638184 21.86820983886719 27.48210525512695 19.15167999267578 26.83581352233887 C 16.51025009155273 26.20739364624023 13.93777084350586 25.27426528930664 11.50569915771484 24.06234359741211 C 6.746479034423828 21.6907844543457 2.495399475097656 18.21622467041016 -0.7879714965820312 14.01428413391113 L -1.269458770751953 13.39809417724609 L -0.7875099182128906 12.78226470947266 C 2.496681213378906 8.585803985595703 6.747688293457031 5.115234375 11.50593948364258 2.745763778686523 C 13.93825149536133 1.534553527832031 16.51068115234375 0.6019134521484375 19.15174865722656 -0.02622604370117188 C 21.86854934692383 -0.6723651885986328 24.67518043518066 -0.9999961853027344 27.4936695098877 -0.9999961853027344 Z M 27.22772026062012 17.36288452148438 C 29.46952056884766 17.36288452148438 31.29335021972656 15.53905391693115 31.29335021972656 13.29726409912109 C 31.29335021972656 11.05546474456787 29.46952056884766 9.231634140014648 27.22772026062012 9.231634140014648 C 24.98592948913574 9.231634140014648 23.16209983825684 11.05546474456787 23.16209983825684 13.29726409912109 C 23.16209983825684 15.53905391693115 24.98592948913574 17.36288452148438 27.22772026062012 17.36288452148438 Z M 18.69149017333984 19.96053504943848 C 18.74314117431641 19.96053504943848 18.79251098632812 19.94623374938965 18.83823013305664 19.91802406311035 C 18.91098022460938 19.87313461303711 18.93888854980469 19.80846405029297 18.94948959350586 19.76212501525879 C 18.96067047119141 19.71325492858887 18.96342086791992 19.63842391967773 18.91300964355469 19.55944442749023 L 18.90489959716797 19.54653549194336 C 18.83739852905273 19.4371452331543 18.72364044189453 19.42864418029785 18.69038009643555 19.42864418029785 C 18.63959884643555 19.42864418029785 18.59112930297852 19.44314384460449 18.54632186889648 19.47175407409668 L 18.54159164428711 19.47475433349609 C 18.42499923706055 19.54824829101562 18.38936996459961 19.71336936950684 18.46043014526367 19.84062576293945 C 18.5142707824707 19.91594314575195 18.59973526000977 19.96053504943848 18.69149017333984 19.96053504943848 Z" stroke="none" fill="#353535"/>
  </g>
</svg>
